/* XPM */
static char * bragging2_xpm[] = {
"64 64 630 2",
"  	c #000000",
". 	c #0A0000",
"+ 	c #0F0000",
"@ 	c #0C0000",
"# 	c #010000",
"$ 	c #1B0000",
"% 	c #600000",
"& 	c #B10000",
"* 	c #970000",
"= 	c #9A0000",
"- 	c #840000",
"; 	c #920000",
"> 	c #A60000",
", 	c #AD0000",
"' 	c #B20000",
") 	c #B40000",
"! 	c #8A0000",
"~ 	c #4B0000",
"{ 	c #130000",
"] 	c #040000",
"^ 	c #060000",
"/ 	c #290000",
"( 	c #430000",
"_ 	c #C00000",
": 	c #D80000",
"< 	c #900000",
"[ 	c #D50000",
"} 	c #C60000",
"| 	c #D00000",
"1 	c #7F0000",
"2 	c #D10000",
"3 	c #B50000",
"4 	c #6E0000",
"5 	c #090000",
"6 	c #250000",
"7 	c #830000",
"8 	c #C30000",
"9 	c #CA0000",
"0 	c #500000",
"a 	c #360000",
"b 	c #0B0000",
"c 	c #580000",
"d 	c #5F0000",
"e 	c #760000",
"f 	c #CB0000",
"g 	c #2F0000",
"h 	c #180000",
"i 	c #BD0000",
"j 	c #D70000",
"k 	c #AC0000",
"l 	c #C50000",
"m 	c #950000",
"n 	c #A90000",
"o 	c #640000",
"p 	c #020000",
"q 	c #0F0201",
"r 	c #330605",
"s 	c #400504",
"t 	c #220101",
"u 	c #0D0000",
"v 	c #190000",
"w 	c #730000",
"x 	c #BE0000",
"y 	c #CE0000",
"z 	c #7C0000",
"A 	c #400000",
"B 	c #080000",
"C 	c #3B0000",
"D 	c #620000",
"E 	c #7A0000",
"F 	c #930000",
"G 	c #890000",
"H 	c #510000",
"I 	c #270101",
"J 	c #330000",
"K 	c #8E332A",
"L 	c #EFB799",
"M 	c #F4BB9C",
"N 	c #F2B99A",
"O 	c #D7826C",
"P 	c #8A2E26",
"Q 	c #540706",
"R 	c #4E0000",
"S 	c #5B0000",
"T 	c #740000",
"U 	c #5C0000",
"V 	c #670000",
"W 	c #B90000",
"X 	c #CF0000",
"Y 	c #BB0000",
"Z 	c #921612",
"` 	c #BE4D40",
" .	c #E49B81",
"..	c #D58670",
"+.	c #C76B5A",
"@.	c #D78E75",
"#.	c #6A2621",
"$.	c #260101",
"%.	c #6A0000",
"&.	c #D40000",
"*.	c #B30000",
"=.	c #CC0000",
"-.	c #170000",
";.	c #8C443A",
">.	c #E1AA8E",
",.	c #300302",
"'.	c #450000",
").	c #370000",
"!.	c #220000",
"~.	c #A85345",
"{.	c #86322A",
"].	c #0E0000",
"^.	c #7D0000",
"/.	c #7B0000",
"(.	c #D20000",
"_.	c #BA0000",
":.	c #651F1A",
"<.	c #DD9A81",
"[.	c #1E0000",
"}.	c #260000",
"|.	c #B60000",
"1.	c #230000",
"2.	c #1A0000",
"3.	c #110000",
"4.	c #520000",
"5.	c #9D4A3E",
"6.	c #61100D",
"7.	c #940000",
"8.	c #8B0000",
"9.	c #D60000",
"0.	c #990000",
"a.	c #DA9179",
"b.	c #BA5E4F",
"c.	c #660000",
"d.	c #1F0000",
"e.	c #300000",
"f.	c #710000",
"g.	c #610000",
"h.	c #670403",
"i.	c #F3BA9B",
"j.	c #ECAE92",
"k.	c #7C0303",
"l.	c #AA0000",
"m.	c #5A0000",
"n.	c #850B0A",
"o.	c #581F1A",
"p.	c #6B0000",
"q.	c #440000",
"r.	c #D30000",
"s.	c #870000",
"t.	c #73100E",
"u.	c #EDB698",
"v.	c #D1A085",
"w.	c #D3A187",
"x.	c #E0AC8F",
"y.	c #BB8D76",
"z.	c #330201",
"A.	c #8C0000",
"B.	c #51100D",
"C.	c #EBB496",
"D.	c #AE856F",
"E.	c #92705E",
"F.	c #2E231D",
"G.	c #4A392F",
"H.	c #896958",
"I.	c #8C6B59",
"J.	c #7A5E4E",
"K.	c #E7B194",
"L.	c #300E0D",
"M.	c #A00000",
"N.	c #2C0908",
"O.	c #F1B99A",
"P.	c #C1947C",
"Q.	c #15100D",
"R.	c #271E19",
"S.	c #8F6D5B",
"T.	c #CD9D83",
"U.	c #705548",
"V.	c #30251F",
"W.	c #050404",
"X.	c #7A5D4D",
"Y.	c #DAA78B",
"Z.	c #B47461",
"`.	c #770000",
" +	c #250706",
".+	c #E3AF91",
"++	c #977461",
"@+	c #7A5E4F",
"#+	c #544135",
"$+	c #4B3931",
"%+	c #44352B",
"&+	c #48372E",
"*+	c #A7806A",
"=+	c #B78C76",
"-+	c #130E0C",
";+	c #604A3E",
">+	c #830D0C",
",+	c #1F0302",
"'+	c #0D0908",
")+	c #17120E",
"!+	c #654D41",
"~+	c #674F41",
"{+	c #73584A",
"]+	c #0A0706",
"^+	c #5B463A",
"/+	c #9A4E42",
"(+	c #69201C",
"_+	c #3D2F27",
":+	c #49372F",
"<+	c #674F42",
"[+	c #BB927C",
"}+	c #513A33",
"|+	c #050000",
"1+	c #5B463B",
"2+	c #C3947C",
"3+	c #0E0B09",
"4+	c #241B17",
"5+	c #775B4C",
"6+	c #DEAB8E",
"7+	c #BD947E",
"8+	c #170F0D",
"9+	c #997562",
"0+	c #A07B67",
"a+	c #4B3A31",
"b+	c #4A382F",
"c+	c #5D473B",
"d+	c #806252",
"e+	c #B98E76",
"f+	c #C29881",
"g+	c #1B1714",
"h+	c #030303",
"i+	c #372D27",
"j+	c #0A0807",
"k+	c #120E0C",
"l+	c #130F0C",
"m+	c #1B1411",
"n+	c #291F1A",
"o+	c #47362D",
"p+	c #785C4D",
"q+	c #C49A84",
"r+	c #120F0D",
"s+	c #886A5B",
"t+	c #F7BA9B",
"u+	c #624D42",
"v+	c #43362E",
"w+	c #F2BA9B",
"x+	c #DCAA8F",
"y+	c #42312B",
"z+	c #0A0908",
"A+	c #E1AB90",
"B+	c #866859",
"C+	c #1F1A17",
"D+	c #CB9E86",
"E+	c #F2B999",
"F+	c #443029",
"G+	c #29211E",
"H+	c #AA836F",
"I+	c #010101",
"J+	c #CB9D85",
"K+	c #F3BB9C",
"L+	c #A4826E",
"M+	c #514037",
"N+	c #2A221E",
"O+	c #C99A82",
"P+	c #A17E6B",
"Q+	c #EAB496",
"R+	c #EEC4AC",
"S+	c #F5C1A4",
"T+	c #675247",
"U+	c #171413",
"V+	c #F3B899",
"W+	c #DEA98F",
"X+	c #795F51",
"Y+	c #D4A388",
"Z+	c #C99A80",
"`+	c #B18D79",
" @	c #756860",
".@	c #85807E",
"+@	c #F2F2F2",
"@@	c #A18678",
"#@	c #2F2622",
"$@	c #020202",
"%@	c #D9A68C",
"&@	c #E3AD91",
"*@	c #060606",
"=@	c #4E3F36",
"-@	c #C69A83",
";@	c #78665D",
">@	c #706965",
",@	c #B7B7B7",
"'@	c #AAAAAA",
")@	c #838383",
"!@	c #999999",
"~@	c #9A7B69",
"{@	c #C69A82",
"]@	c #060303",
"^@	c #060505",
"/@	c #231D1A",
"(@	c #312723",
"_@	c #C0937D",
":@	c #F6B99A",
"<@	c #151210",
"[@	c #E9B397",
"}@	c #E1AD92",
"|@	c #877166",
"1@	c #786F6B",
"2@	c #A5A4A3",
"3@	c #F1F1F1",
"4@	c #FFFFFF",
"5@	c #D1D1D1",
"6@	c #D0D0D0",
"7@	c #E4E4E4",
"8@	c #4B433F",
"9@	c #E6B093",
"0@	c #EFB99B",
"a@	c #694940",
"b@	c #0C0303",
"c@	c #150000",
"d@	c #0D0B0A",
"e@	c #4C3B33",
"f@	c #957260",
"g@	c #DAA68B",
"h@	c #967463",
"i@	c #070606",
"j@	c #C89981",
"k@	c #785D4F",
"l@	c #A27E6B",
"m@	c #B78E78",
"n@	c #B5B2B0",
"o@	c #B6B4B3",
"p@	c #534843",
"q@	c #D2A186",
"r@	c #B09180",
"s@	c #090403",
"t@	c #350B09",
"u@	c #160000",
"v@	c #AA8069",
"w@	c #E1A688",
"x@	c #E9AD8E",
"y@	c #F1B495",
"z@	c #AB8673",
"A@	c #C99A81",
"B@	c #1E1814",
"C@	c #65574F",
"D@	c #EFEFEF",
"E@	c #ECECEC",
"F@	c #9A9491",
"G@	c #5F524B",
"H@	c #987664",
"I@	c #C7A390",
"J@	c #CC9E86",
"K@	c #1C0101",
"L@	c #470C09",
"M@	c #1A1514",
"N@	c #D89D7F",
"O@	c #D6A083",
"P@	c #D19F85",
"Q@	c #D8A58B",
"R@	c #DEAA90",
"S@	c #E3AD92",
"T@	c #F1B699",
"U@	c #E1AC91",
"V@	c #332925",
"W@	c #AD8873",
"X@	c #DFAB8F",
"Y@	c #716058",
"Z@	c #7C6A60",
"`@	c #7F675A",
" #	c #C4967D",
".#	c #CFA892",
"+#	c #E3B298",
"@#	c #E9B395",
"##	c #220504",
"$#	c #330A08",
"%#	c #1D0B09",
"&#	c #1A1613",
"*#	c #896754",
"=#	c #D89E7F",
"-#	c #E0A586",
";#	c #E7AC8D",
">#	c #EFB394",
",#	c #ECB396",
"'#	c #DCA98F",
")#	c #DDAA8F",
"!#	c #695246",
"~#	c #B18973",
"{#	c #D3A68D",
"]#	c #D9AD96",
"^#	c #DCAF96",
"/#	c #332720",
"(#	c #340101",
"_#	c #63110E",
":#	c #916B58",
"<#	c #CF9678",
"[#	c #D79D7F",
"}#	c #DFA486",
"|#	c #E7AB8D",
"1#	c #EEB293",
"2#	c #EDB496",
"3#	c #D9A78D",
"4#	c #8D6D5C",
"5#	c #95725F",
"6#	c #ECB698",
"7#	c #D1A68E",
"8#	c #E3B197",
"9#	c #D6AB94",
"0#	c #D7A58A",
"a#	c #090706",
"b#	c #1F0101",
"c#	c #1B0806",
"d#	c #7A5B4A",
"e#	c #CF9577",
"f#	c #CB967A",
"g#	c #C9977D",
"h#	c #D09E83",
"i#	c #D5A288",
"j#	c #DDA98F",
"k#	c #A5806C",
"l#	c #0E0403",
"m#	c #050100",
"n#	c #1B1511",
"o#	c #E8B194",
"p#	c #CCA48E",
"q#	c #E3B399",
"r#	c #D6AB93",
"s#	c #DAAD95",
"t#	c #200000",
"u#	c #100101",
"v#	c #3D0E0B",
"w#	c #020101",
"x#	c #5E493E",
"y#	c #CE9577",
"z#	c #D69C7D",
"A#	c #DEA384",
"B#	c #E5AA8B",
"C#	c #EDB192",
"D#	c #F5B899",
"E#	c #F4B89A",
"F#	c #DAA88E",
"G#	c #DAA78E",
"H#	c #BE927B",
"I#	c #040201",
"J#	c #523F35",
"K#	c #DAAD94",
"L#	c #D2A790",
"M#	c #DEB096",
"N#	c #D3A992",
"O#	c #D5A991",
"P#	c #EBB597",
"Q#	c #030000",
"R#	c #2A0000",
"S#	c #2E0403",
"T#	c #4F0C09",
"U#	c #2A0E0B",
"V#	c #B08067",
"W#	c #CD9476",
"X#	c #D59B7D",
"Y#	c #DDA284",
"Z#	c #E5A98B",
"`#	c #ECB092",
" $	c #F4B798",
".$	c #C2957E",
"+$	c #160907",
"@$	c #560E0B",
"#$	c #0C0101",
"$$	c #350000",
"%$	c #876756",
"&$	c #E8B498",
"*$	c #C9A491",
"=$	c #D9AB92",
"-$	c #E9B599",
";$	c #240000",
">$	c #070000",
",$	c #5D0101",
"'$	c #3B0605",
")$	c #3F0A08",
"!$	c #210B09",
"~$	c #896552",
"{$	c #CD9375",
"]$	c #C19075",
"^$	c #C7967B",
"/$	c #CE9B81",
"($	c #D5A287",
"_$	c #DBA78D",
":$	c #EAB295",
"<$	c #8F6D5C",
"[$	c #160101",
"}$	c #2E0000",
"|$	c #470000",
"1$	c #6F0000",
"2$	c #310000",
"3$	c #040202",
"4$	c #B68B74",
"5$	c #050303",
"6$	c #700000",
"7$	c #490000",
"8$	c #3F0000",
"9$	c #4A0201",
"0$	c #5E0B09",
"a$	c #44342B",
"b$	c #CC9375",
"c$	c #D49A7C",
"d$	c #DBA182",
"e$	c #E3A889",
"f$	c #EBAF90",
"g$	c #F3B697",
"h$	c #EBB295",
"i$	c #D1A28A",
"j$	c #E7AF93",
"k$	c #7D443B",
"l$	c #480000",
"m$	c #110807",
"n$	c #D3A086",
"o$	c #CA9B81",
"p$	c #1C1512",
"q$	c #590000",
"r$	c #4B392F",
"s$	c #CB9274",
"t$	c #D3997B",
"u$	c #DBA082",
"v$	c #E2A789",
"w$	c #EAAE90",
"x$	c #F1B596",
"y$	c #EFB597",
"z$	c #571F1B",
"A$	c #260F0C",
"B$	c #E7B092",
"C$	c #BA8E77",
"D$	c #1C0000",
"E$	c #410000",
"F$	c #530000",
"G$	c #241C18",
"H$	c #B8856B",
"I$	c #D2997A",
"J$	c #D19B7E",
"K$	c #CB997F",
"L$	c #D2A085",
"M$	c #E4AE92",
"N$	c #E5AE93",
"O$	c #2D201C",
"P$	c #551D18",
"Q$	c #F0B597",
"R$	c #AF8771",
"S$	c #3C0000",
"T$	c #3D0000",
"U$	c #420000",
"V$	c #2E241F",
"W$	c #B6866C",
"X$	c #D99F80",
"Y$	c #E1A687",
"Z$	c #F0B495",
"`$	c #2D2420",
" %	c #270000",
".%	c #1D0000",
"+%	c #460000",
"@%	c #962F27",
"#%	c #E17C67",
"$%	c #750F0D",
"%%	c #2C0000",
"&%	c #4A0000",
"*%	c #4D0000",
"=%	c #211B17",
"-%	c #9F7863",
";%	c #E0A587",
">%	c #E8AC8E",
",%	c #F0B395",
"'%	c #261F1B",
")%	c #3A0000",
"!%	c #CE3F34",
"~%	c #DF7560",
"{%	c #AC0303",
"]%	c #A80000",
"^%	c #560000",
"/%	c #570000",
"(%	c #685044",
"_%	c #BC8E76",
":%	c #A22F29",
"<%	c #4C0000",
"[%	c #C23A30",
"}%	c #E48A72",
"|%	c #CC0705",
"1%	c #2D0000",
"2%	c #550000",
"3%	c #C2947B",
"4%	c #D25E51",
"5%	c #390000",
"6%	c #8E251F",
"7%	c #EEAD90",
"8%	c #CA3026",
"9%	c #320000",
"0%	c #380000",
"a%	c #A50000",
"b%	c #836556",
"c%	c #F5B89A",
"d%	c #DA8F79",
"e%	c #2B0000",
"f%	c #120000",
"g%	c #B0251F",
"h%	c #DC5C4B",
"i%	c #210000",
"j%	c #4F0000",
"k%	c #4B3C33",
"l%	c #4B2420",
"m%	c #7E0000",
"n%	c #910000",
"o%	c #100000",
"p%	c #790000",
"q%	c #1E1A17",
"r%	c #F1B597",
"s%	c #280000",
"t%	c #BF0000",
"u%	c #860000",
"v%	c #540000",
"w%	c #690000",
"x%	c #C99982",
"y%	c #DBA68C",
"z%	c #0C0A09",
"A%	c #C70000",
"B%	c #A47E6B",
"C%	c #BB8E78",
"D%	c #7F5E50",
"E%	c #3A251F",
"F%	c #23100D",
"G%	c #866757",
"H%	c #EEB597",
"I%	c #AD8571",
"J%	c #6D5549",
"K%	c #483932",
"L%	c #5E493F",
"M%	c #1C1715",
"                                                                                                                                ",
"                                                                                                                                ",
"                                                                                                                                ",
"                                                                                                                                ",
"                                                                                                                                ",
"                                                                                                                                ",
"                                                          . + @ @ @ @ @ @ @ @ #                                                 ",
"                                                      . $ % & * = - ; > , ' ) ! ~ { ]                                           ",
"                                                  ^ / ( _ : : < [ } [ | * & 1 2 : 3 4 / 5                                       ",
"                                                6 7 8 8 : : [ 9 : 8 0 a b { b c d e 9 f 1 g 5                                   ",
"                                              h i j ) k l } * m n o p q r s t u   v @ w x y z A B                               ",
"                                              C : , D 4 E F G H I J K L M M N O P Q R S T U V ) W a                             ",
"                                              C : l f X Y Z `  ...+.M M M M M M M M @.#.$.B %.&.: *.h                           ",
"                                              6 =.T -.$ ;.M M M M M M M M M M M M M M M >.,.] '._ y < p                         ",
"                                              ).&.l !.~.M M M M M M M M M M M M M M M M M {.^ ].% w ^.S                         ",
"                                              /.(._.:.M M M M M M M M M M M M M M M M M M <.[.}.U |.1.2.                        ",
"                                            3.W =.4.5.M M M M M M M M M M M M M M M M M M M 6.u + 7.8.]                         ",
"                                            ( 9.0.C a.M M M M M M M M M M M M M M M M M M M b.S c.d.w e.                        ",
"                                            f.(.g.h.i.M M M M M M M M M M M M M M M M M M M j.k.l.g.m.                          ",
"                                            8.[ ^.n.M M M M M M M M M M M M M M M M M M M M M o.& X p.                          ",
"                                            q.r.s.t.M M M M M M M M M M M M i.u.v.w.x.M M i.M y.z.} f.                          ",
"                                              A.4.B.M M M C.M M M M M M M i.D.E.F.G.H.I.J.I.K.M L.M.e                           ",
"                                              ).c N.M O.P.Q.  R.S.M M M M T.U.V.W.          X.Y.Z.; `.                          ",
"                                              # /. +.+++@+#+$+%+&+*+M M =+-+                ;+M M >+`.                          ",
"                                                H ,+'+            )+!+~+{+]+                ^+M M /+(+                          ",
"                                                ^ p               _+M M M :+                <+M M [+}+                          ",
"                                                  |+              1+M M M 2+3+          4+5+6+M M 7+8+                          ",
"                                                                  9+M M M M 0+a+b+c+d+e+i.M M M M f+g+                          ",
"                        h+i+j+                      k+Q.l+m+n+o+p+i.M M M M M M M M M M M M M M M q+r+                          ",
"                        s+t+u+                      v+M M M M M M M M M M M M M M M M M M M M M w+x+y+                          ",
"                      z+A+t+B+                      C+w+M M M M M M M M M M M M M M M M M M M M D+E+F+                          ",
"                      G+t+t+H+                      I+J+M M M M M K+M M M M M M M M M M M M M M L+M+@                           ",
"                      N+t+t+O+                        P+M M M M L i.M M M M M M Q+R+S+M M M M M T+  u                           ",
"                      U+V+t+W+h+                      X+M M M M Y+Z+M M M w+`+ @.@+@@@M M M M M #@  . ]                         ",
"                      $@%@t+&@*@                      =@M M M M M M M -@;@>@,@'@)@!@~@M M M M {@]@5 b u                         ",
"              ^@/@(@h+  _@t+:@G+                      <@[@M M M }@|@1@2@3@4@5@6@7@8@9@M M M 0@a@b@c@2.+                         ",
"        d@e@f@g@t+t+h@i@j@t+t+k@                        l@M M M m@n@4@4@4@4@4@o@p@q@M M M M r@s@s t@u@-.|+                      ",
"      i@v@w@x@y@t+t+t+z@t+t+t+A@h+                      B@M M M M C@D@4@E@F@G@H@O.M M M M I@J@    K@L@|+{                       ",
"      M@N@O@P@Q@R@R@S@T@U@t+t+t+V@                      # W@M M M X@Y@Z@`@ #M M M M M M .#+#@#I+      ##$#%#                    ",
"    &#*#=#-#;#>#t+t+,#'#)#t+t+t+!#                        ~#{#M M M M M M M M M M M M ]#^#M M /#      |+^ (#_#                  ",
"    :#<#[#}#|#1#:@t+t+2#3#t+t+t+4#                        5#6#7#i.M M M M M M M M M 8#9#M M M 0#a#          b#c#                ",
"    d#e#f#g#h#i#j#R@)#t+R@t+t+t+k#          l#m#          n#o#i.p#q#M M M M M M M r#s#M M M M M c+        # t#u#v#w#            ",
"    x#y#z#A#B#C#D#t+E#F#G#t+t+t+H#    I#p p                 J#i.M K#L#M#M i.^#N#O#P#M M M M M M 5#        Q## R#p.S#T#U#        ",
"  h+V#W#X#Y#Z#`# $t+t+t+'#t+t+t+.$+$@$#$    $$t#              %$M M M &$*$=$-$M M M M M M M M M c+            ;$$$>$'.,$'$)$!$  ",
"    ~${$]$^$/$($_$'#:$t+'#t+t+t+<$[$}$h |$1$2$                3$4$M M M M M M M M M M M M M M T.5$          h p.g.6$7$8$C A 9$0$",
"    a$b$c$d$e$f$g$t+h$i$j$t+t+t+k$l$2$  v 5                     m$n$M M M M M M M M M M M M o$p$          p q$Q#              ^ ",
"    r$s$t$u$v$w$x$2#y$'#t+t+t+t+z$b                               A$B$M M M M M M M M M M C$3+          D$E$1.p               F$",
"    G$H$I$J$K$L$%@M$N$t+t+t+t+t+O$8$}$          D$2$                P$Q$M M M M M M M M R$a#            S$W T$^             U$C ",
"      V$W$X$Y$x@Z$t+t+t+t+t+t+t+`$   %.%      # +%      [.#         # @%y$M M M M M M #%$%  p       p %%{   u@&%*%Q#        g.  ",
"        =%-%;%>%,%t+t+t+t+t+t+t+'%    l$u@l$c@)%+       .%l$1.        ( !%Z$M M M M ~%{%]%    S$    '.^         5 ^%1.      /%  ",
"          j+(%_%>#t+t+t+t+t+t+t+:%e ( /.<%                  ).2.B     v 4 [%,%M M }%|%1 q.    g   $$h               1%0 2%R %   ",
"              W.3%:@t+t+t+t+t+t+4%7     T$q$o 1.              f.5%      $ 5 6%7%K+8%$$5 9%    3.U$S                       0%a%^%",
"                b%c%t+t+t+t+t+t+d%U           ( e%          Q#f.~ +%U$$ R#f%] g%h%m   5 ).i%( +%g./.#                 ^ c.j%p   ",
"                k%D#t+t+t+t+t+t+E#l%            l$b         2%c@    |+<%4 J D$z [ m%u   n%^%#     { 4 o%            5 p%$       ",
"                q%r%t+t+t+t+t+t+t+B+            # R       s%E$      m.h @ 7.U$6 t%u%v%V G .%S       ^ D g           w%{         ",
"                I+x%t+t+t+t+t+t+t+y%z%            l$h + w%R       ] M.  ^ ^%  / A%E     2%  z i%        C F$Q#    >$1$+ p       ",
"                  B%t+t+t+t+E#C%D%E%F%F%F%F%F%F%F%F%F%F%F%F%F%F%F%F%F%F%F%F%F%F%F%F%F%F%F%F%F%F%F%F%F%F%F%F%F%F%F%F%F%F%F%F%F%F%",
"                  G%t+H%I%J%G+                                                                                                  ",
"                  K%L%M%                                                                                                        ",
"                                                                                                                                ",
"                                                                                                                                ",
"                                                                                                                                ",
"                                                                                                                                ",
"                                                                                                                                "};
