/* XPM */
static char *_421d66e552d41439a4d7f5872233478TcUpQdXaZl9xeqL9[] = {
/* columns rows colors chars-per-pixel */
"64 64 31 1 ",
"  c #36211E",
". c #37221F",
"X c #382320",
"o c #3A2421",
"O c #3E2723",
"+ c #3F2824",
"@ c #402824",
"# c #432B26",
"$ c #442B26",
"% c #472E29",
"& c #543931",
"* c #573B34",
"= c #583C34",
"- c #5C3F36",
"; c #5C4037",
": c #5D4037",
"> c #5E4138",
", c #614339",
"< c #62443A",
"1 c #64453B",
"2 c #65463C",
"3 c #6D4C40",
"4 c #704E42",
"5 c #724F44",
"6 c #725043",
"7 c #765346",
"8 c #7A5649",
"9 c #7C574A",
"0 c #7D594B",
"q c #805A4C",
"w c #845D4E",
/* pixels */
"OOOO=,::::::::::::::::::::::::>=+OOO=,::::::::::::::::::::::::::",
"OOOO=,::::::::::::::::::::::::>=OoOO=,::::::::::::::::::::::::::",
"OOOO=,::>>>>>>>>>>>>>>>>-=--::>=OooO=,::>>>>>>>>>>>>>>>>-=--::::",
"OOOO=,::>>>>>>>>>>>>>>>>:---::>=OooO=,::>>>>>>>>>>>>>>>>:---::::",
"OOOO=,>>%###############3977,-,:#OOO=,>>%###############3877,=::",
"OOOO=,>># oooooooooooo X6w00,=>:#OOO=,>># oooooooooooo X6w00,=::",
"OOOO=,>>#oOOOOOOOOOOOOoo4q88,=>=#OOO=,>>#oOOOOOOOOOOOOoo4q88,=::",
"OOOO=,>>#oOOOOOOOOOOOOoo4q88,=>=#OOO=,>>#oOOOOOOOOOOOOoo4q88,=::",
"OOOO=,>>#oOO&-========&*7088,=>=+OOO=,>>#oOO&-========&*7088,=::",
"OOOO=,>>#oOO=2,,,,,,,,,,7988,=>=OoOO=,>>#oOO=2,,,,,,,,,,7988,=::",
"OOOO=,>>#oOO=,::::::::--7988,=>=OooO=,>>#oOO=,::::::::--7988,=::",
"OOOO=,>>#oOO=,::::::::--7988,=>=OooO=,>>#oOO=,::::::::--7988,=::",
"OOOO=,>>#oOO=,::::::::--7988,=,:#OOO=,>>#oOO=,::::::::--7988,=::",
"OOOO=,>>#oOO=,::::::::--7988<=,:#OOO=,>>#oOO=,::::::::--7988,=::",
"OOOO=,>>#oOO=,::::::::--7988,=,:#OOO=,>>#oOO=,::::::::--7988,=::",
"OOOO=,>>#oOO=,::::::::--7988,=>=#OOO=,>>#oOO=,::::::::--7988,=::",
"OOOO=,>>#oOO=,::::::::--7988,=>=+OOO=,>>#oOO=,::::::::--7988,=::",
"OOOO=,>>#oOO=,::::::::--7988,=>=OoOO=,>>#oOO=,::::::::--7988,=::",
"OOOO=,>># oo&,--------==7988,=>=OooO=,>># oo&,--------==7988,=::",
"OOOO=,>>#Xoo&,--------==7988,=>=OooO=,>>#Xoo&,--------==7988,=::",
"OOOO=,--35347777777777778888,=,:#OOO=,--35347777777777778888,=::",
"OOOO=,--8wqq0999999999008888<=,:#OOO=,--8wqq0999999999008888,=::",
"OOOO=,--70888888888888888888,=,:#OOO=,--70888888888888888888,=::",
"OOOO=,--70888888888888888888,=>:#OOO=,--70888888888888888888,=::",
"OOOO=,::,<,,,,,,,,,,,,,,,,,,>:>=#OOO&,::,<,,,,,,,,,,,,,,,,,,>:::",
"OOOO=,::====================::>=#OOO&,::====================::::",
"OOOO=<>>>>::>>>>>>>>>>:>>>>>>>,:#OOO=,>>>>>>>>::>>>>>>>>>>::>>>>",
"OOOO=<>>>>>:>>>>>>>>>>::>>>>>>,:#OOO=,>>>>>>>>::>>>>>>>>>>::>>>>",
"OOOO#$##########################OOOO########################$###",
"OOOOooooooooXXXoooooooooXXXoooooOOOOo XoooooooooXXXoooooooXXoooo",
"OOOOOoOOOOOOooOOOOOOOOOOooOOOOoOOOOOooOOOOOOOOOOooOOOOOOOOOOOOOO",
"OOOO+######++O##########+O######OOOO+O#########++O##############",
"OOOO&>====::==========::====::>=#OOO&>====::==========::========",
"OOOO=1>>>>,,>>>>>>>>>>>,>>>>,,<:#OOO=1>>>>,,>>>>>>>>>>>,>>>>>>>>",
"OOOO=,::>>>>>>>>>>>>>>,,-=--:>>:#OOO=,::>>>>>>>>>>>>>>,,-=--::::",
"OOOO=,::>>>>>>>>>>>>>>>>:---::>=+OOO=,::>>>>>>>>>>>>>>>>:---::::",
"OOOO=,>>%###$$##########3977,=>=OoOO=,>>%###$$##########3977,=::",
"OOOO=,>># oooooooooooo X6w00,=>=+oOO=,>># oooooooooooo X6w00,=::",
"OOOO=,>>#oOOOOOOOOOOOOoo4q88,=>=+oOO=,>>#oOOOOOOOOOOOOoo4q88,=::",
"OOOO=,>>#oOOOOOOOOOOOOoo4q88,=>=+oOO=,>>#oOOOOOOOOOOOOoo4q88,=::",
"OOOO=,>>#oOO&-========&*7088,=>=#OOO=,>>#oOO&-========&*7088,=::",
"OOOO=,>>#oOO=2,,,,,,,,,,7988,=>=#OOO=,>>#oOO=2,,,,,,,,,,7988,=::",
"OOOO=,>>#oOO=,::::::::--7988,=>=#OOO=,>>#oOO=,::::::::--7988,=::",
"OOOO=,>>#oOO=,::::::::--7988,=,:#OOO=,>>#oOO=,::::::::--7988,=::",
"OOOO=,>>#oOO=,::::::::--7988<=,:+ooO=,>>#oOO=,::::::::--7988,=::",
"OOOO=,>>#oOO=,::::::::--7988<=,:+ooO=,>>#oOO=,::::::::--7988,=::",
"OOOO=,>>#oOO=,::::::::--7988<=>=#OoO=,>>#oOO=,::::::::--7988,=::",
"OOOO=,>>#oOO=,::::::::--7988<=>=#OoO=,>>#oOO=,::::::::--7988,=::",
"OOOO=,>>#oOO=,::::::::--7988,=>=#OoO&,::#oOO=,::::::::--7988,=::",
"OOOO=,>>#oOO=,::::::::--7988,=>=#OoO&,>>#oOO=,::::::::--7988,=::",
"OOOO=,>># oo&,--------==7988,=>=#OOO=,>># oo&,--------==7988,=::",
"OOOO=,>>#Xoo&,--------==7988,=>=#OoO=,>>#Xoo&,--------==7988,=::",
"OOOO=,--35347777777777778888,=>=#OOO=,--35347777777777778888,=::",
"OOOO=,--8wqq0999999999008888<=>=#OOO=,--8wqq0999999999008888,=::",
"OOOO=,--70888888888888888800<=>=#OOO=,--70888888888888888888,=::",
"OOOO=,--70888888888888888800<=>=#OOO=,--70888888888888888888,=::",
"OOOO=,::,<,,,,,,,,,,,,,,,,,,>:>=+ooO=,::,<,,,,,,,,,,,,,,,,,,>:::",
"OOOO=,::====================::>=+ooO=,::====================::::",
"OOOO=<>>>>>>>>>>>>>>>>>>>>>>>>,:#OoO=<>>>>>>>>>>>>>>>>>>>>>>>>>>",
"OOOO=<>>>>>>>>>>>>>>>>>>>>>>>>,:#OoO=<>>>>>>>>>>>>>>>>>>>>>>>>>>",
"OOOO#$##########################OOOO#$##########################",
"OOOOooooooooooooooooooooooooooooOOOOoooooooooooooooooooooooooooo",
"OOOOOOOOOOOOOOOOOOOOOOOOOOOOOOOOOOOOOOOOOOOOOOOOOOOOOOOOOOOOOOOO",
"OOOOOOOOOOOOOOOOOOOOOOOOOOOOOOOOOOOOOOOOOOOOOOOOOOOOOOOOOOOOOOOO"
};
