/* XPM */
static char *_b62b2bd30db4ac0e5b57a5710ba2b18xQ0Fx8fDcMqLUAlG[] = {
/* columns rows colors chars-per-pixel */
"64 64 37 1 ",
"  c #D7D08E",
". c #D8D18E",
"X c #DAD391",
"o c #DBD493",
"O c #DCD593",
"+ c #DBD494",
"@ c #DED797",
"# c #DFD899",
"$ c #E0D99A",
"% c #E2DB9C",
"& c #E3DC9D",
"* c #E7E0A2",
"= c #F3ECB0",
"- c #F6EFB3",
"; c #F7F0B3",
": c #F7F0B5",
"> c #FBF3B3",
", c #FBF3B7",
"< c #FBF4B7",
"1 c #FAF3B8",
"2 c #FBF4BA",
"3 c #FCF5BB",
"4 c #FEF7BE",
"5 c #FFF8BC",
"6 c #FCF6C1",
"7 c #FFFBC3",
"8 c #FAF7D8",
"9 c #FAF7DE",
"0 c #FAF7E2",
"q c #FDFBE2",
"w c #FEFCE3",
"e c #FEFCE4",
"r c #FFFDEA",
"t c #FFFDEC",
"y c #FFFEF2",
"u c #FFFFF5",
"i c #FFFFFC",
/* pixels */
"@@@@:422222222222222222222222241$O@@:422222222222222222222222222",
"@@@@:422222222222222222222222241$O@@:422222222222222222222222222",
"@@@@:42234444444444444442,222241$o@@:42234444444444444442,222222",
"@@@@:422333333333333333322222241$O@@:422333333333333333322222222",
"@@@@:443*$&&&&&&&&&&&&$$8tee6,41$@@@:443*$&&&&&&&&&&&&$$8tee6,22",
"@@@@:443$ oooooooooooo.X0iyy6>41$@@@:443$ oooooooooooo.X0iyy6>22",
"@@@@:443&o@@@@@@@@@@@@XO9utt6,41$@@@:443&o@@@@@@@@@@@@XO9utt6,22",
"@@@@:443&o@@@@@@@@@@@@o@9utt6,41$@@@:443&o@@@@@@@@@@@@o@9utt6,22",
"@@@@:443&o@@=1::::::::--qytt6,41$O@@:443&o@@=1::::::::--qytt6,22",
"@@@@:443&o@@174444444454eytt6,41$O@@:443&o@@174444444454eytt6,22",
"@@@@:443&o@@:42222222222wytt6,41$O@@:443&o@@:42222222222wytt6,22",
"@@@@:443&o@@:42222222222wytt6,41$O@@:443&o@@:42222222222wytt6,22",
"@@@@:443&o@@:42222222222wytt6,41$@@@:443&o@@:42222222222wytt6,22",
"@@@@:443&o@@:42222222222wytt6,41$@@@:443&o@@:42222222222wytt6,22",
"@@@@:433&o@@:42222222222wytt6,41$@@@:443&o@@:42222222222wytt6,22",
"@@@@:443&o@@:42222222222wytt6,41$@@@:443&o@@:42222222222wytt6,22",
"@@@@:443&o@@:42222222222wytt6,41$O@@:443&o@@:42222222222wytt6,22",
"@@@@:443&o@@:42222222222wytt6,41$O@@:443&o@@:42222222222wytt6,22",
"@@@@:443$.oo-422222222<<wytt6,41$O@@:443$.oo-422<22222<<wytt6,22",
"@@@@:443$XO@;422222222<2wytt6,41$O@@:443$XO@;422222222<2wytt6,22",
"@@@@:4228099qewwwwwwwwwwrttt6,41$@@@:4228099qewwwwwwwwwwrttt6,22",
"@@@@:422riuuyyyyyyyyyyyytrtt6>41$@@@:422riuuyyyyyyyyyyyytrtt6,22",
"@@@@:422eutttttttttttttttttt6,41$@@@:422eytttttttttttttttttt6,22",
"@@@@:422eytttttttttttttttttt6,41$@@@:422wytttttttttttttttttt6,22",
"@@@@:422666666666666666666662241$@@@:422666666666666666666662222",
"@@@@:422,,,,,,>,>,>,,,,,,,,,2241$@@@:422,,>,,,,,,,,,,>,,,,,,2222",
"@@@@,734444443444443443444444441$@@@,533443344444444444434334344",
"@@@@,533333333333333333333333341$@@@,533333333333333333333333333",
"@@@@%&&&&&&&&&&&&&&&&&&&&&&&&&&%@@@@$&&&&&&&&&&&&&&&&&&&&&&&&&&&",
"@@@@+XooooooooooooooooooooooooXo@@@@oXoooooooooooooooooooooooooo",
"@@@@@@@@@@OOOO@@@@@@@@@@OO@@@@@@@@@@@O@@@@@@@@OOOO@@@@@@@@@@@@@@",
"@@@@#$$$$$$$$$$$$$$$$$$$$$$$$$$#@@@@#$$$$$$$$$$$$$$$$$$$$$$$$$$$",
"@@@@-41111111111111111111111112,$@@@-411111111111111111111111111",
"@@@@,744444444444444444444444472$@@@,744444444444444444444444444",
"@@@@:42234444444444344442,122241$O@@:42234444444444344442,122222",
"@@@@:422333333233333323322122241#@@@:422333333233333323322122222",
"@@@@:443*$&&&&&&&&&&&&$$8tee6,41$O@@:443*$&&&&&&&&&&&&$$8tee6,22",
"@@@@:443$ oooooooooooo.X0iyy6>41$o@@:443$ oooooooooooo.X0iyy6>22",
"@@@@:433&o@@@@@@@@@@@@XO9utt6,41$O@@:433&o@@@@@@@@@@@@XO9utt6,22",
"@@@@:443&o@@@@@@@@@@@@o@9utt6,41$O@@:433&o@@@@@@@@@@@@o@9utt6,22",
"@@@@:443&o@@=1::::::::--qytt6,41$@@@:443&o@@=1::::::::--qytt6,22",
"@@@@:443&o@@174444444454eytt6,41$@@@:443&o@@174444444454eytt6,22",
"@@@@:443&o@@:42222222222wytt6,41$@@@:443&o@@:42222222222wytt6,22",
"@@@@:443&o@@:42222222222wytt6,41$@@@:443&o@@:42222222222wytt6,22",
"@@@@:443&o@@:42222222222wytt6,41$O@@:443&o@@:42222222222wytt6,22",
"@@@@:443&o@@:42222222222wytt6,41$O@@:443&o@@:42222222222wytt6,22",
"@@@@:443&o@@:42222222222wytt6,41$O@@:443&o@@:42222222222wytt6,22",
"@@@@:443&o@@:42222222222wytt6,41$O@@:443&o@@:42222222222wytt6,22",
"@@@@:443&o@@:422222222<2wytt6,41$@@@:443&o@@:422222222<2wytt6,22",
"@@@@:443&o@@:422222222<2wytt6,41$@@@:433&o@@:422222222<2wytt6,22",
"@@@@:433$.oo-422222222<<wytt6,41$O@@:433$.oo-422222222<<wytt6,22",
"@@@@:443$XO@;422222222<2wytt6,41$O@@:433$XO@;422222222<2wytt6,22",
"@@@@:4228099qewwwwwwwwwwrttt6,41$@@@:4228099qewwwwwwwwwwrttt6,22",
"@@@@:422riuuyyyyyyyyyyyytrtt6,41$@@@:422riuuyyyyyyyyyyyytrtt6,22",
"@@@@:422eutttttttttttttttttt6,41$@@@:422eutttttttttttttttttt6,22",
"@@@@:422eytttttttttttttttttt6,41$@@@:422eytttttttttttttttttt6,22",
"@@@@:422666666666666666666662241$O@@:422666666666666666666662222",
"@@@@:422,,,,,,,,,,,,,,,,,,>>2241$O@@:422,,,,,,,,,,,,,,,,,,>>2222",
"@@@@,744444444444444444443444441$O@@,744444444444444444443444444",
"@@@@,533333333333333333333333341$O@@,533333333333333333333333333",
"@@@@%&&&&&&&&&&&&&&&&&&&&&&&&&&%@@@@%&&&&&&&&&&&&&&&&&&&&&&&&&&&",
"@@@@+XooooooooooooooooooooooooXo@@@@+Xoooooooooooooooooooooooooo",
"@@@@@@@@@@@@@@@@@@@@@@@@@@@@@@@@@@@@@@@@@@@@@@@@@@@@@@@@@@@@@@@@",
"@@@@@@@@@@@@@@@@@@@@@@@@@@@@@@@@@@@@@@@@@@@@@@@@@@@@@@@@@@@@@@@@"
};
