/* XPM */
static char *_1201647854c451bf384df93ce576990X39bzTl6UEu1wdS4[] = {
/* columns rows colors chars-per-pixel */
"64 64 196 2 ",
"   c #2A1514",
".  c #2B1A15",
"X  c #241A15",
"o  c #28150F",
"O  c #321C17",
"+  c #23130D",
"@  c #231513",
"#  c black",
"$  c #321D1B",
"%  c #4A3632",
"&  c #453835",
"*  c #36281F",
"=  c #5A453A",
"-  c #533A34",
";  c #442F30",
":  c #422E2A",
">  c #3C2D2A",
",  c #44322D",
"<  c #4B3738",
"1  c #301F25",
"2  c #523C3B",
"3  c #544341",
"4  c #443432",
"5  c #392729",
"6  c #463638",
"7  c #50373A",
"8  c #3B2A25",
"9  c #342924",
"0  c #4C3A34",
"q  c #4C3B39",
"w  c #4A443B",
"e  c #33221D",
"r  c #391F1A",
"t  c #4B413C",
"y  c #4C4442",
"u  c #2C221D",
"i  c #352B2A",
"p  c #332523",
"a  c #4A2E2A",
"s  c #352116",
"d  c #DAD2CD",
"f  c #ABA29C",
"g  c #3C312C",
"h  c #D5C7C4",
"j  c #AEACA8",
"k  c #2B1C1B",
"l  c #39231C",
"z  c #443026",
"x  c #756E6B",
"c  c #625654",
"v  c #1B0E0B",
"b  c #7A736F",
"n  c #3E3332",
"m  c #81726F",
"M  c #392523",
"N  c #442D25",
"B  c #1C120D",
"V  c #1C1412",
"C  c #0D0A06",
"Z  c #160A06",
"A  c #231C1A",
"S  c #24221C",
"D  c #2D2422",
"F  c #2B1E21",
"G  c #1C1A15",
"H  c #1D1C19",
"J  c #14110D",
"K  c #221719",
"L  c #1A1418",
"P  c #151412",
"I  c #CDCCC6",
"U  c #BCBBB5",
"Y  c #B7BCB9",
"T  c #CED1CC",
"R  c #CECECB",
"E  c #D3D2D0",
"W  c #C7CCC8",
"Q  c #C4C5C2",
"!  c #BFC1BD",
"~  c #B7BDB6",
"^  c #9CA09C",
"/  c #8D8B89",
"(  c #868789",
")  c #625E5A",
"_  c #D4D2CC",
"`  c #BCBDBA",
"'  c #6D726C",
"]  c #5B6157",
"[  c #636561",
"{  c #656A64",
"}  c #676D69",
"|  c #5D6864",
" . c #62635D",
".. c #747571",
"X. c #757973",
"o. c #6B6E6A",
"O. c #555A55",
"+. c #545552",
"@. c #5B5A55",
"#. c #272926",
"$. c #67726B",
"%. c #6C7471",
"&. c #5C6463",
"*. c #5D625C",
"=. c #76786D",
"-. c #696562",
";. c #72736D",
":. c #7A7B75",
">. c #82837E",
",. c #838782",
"<. c #353532",
"1. c #6E7870",
"2. c #7A7D7A",
"3. c #140E0B",
"4. c #120E11",
"5. c #171813",
"6. c #252421",
"7. c #171C19",
"8. c #2C2922",
"9. c #3D3327",
"0. c #523632",
"q. c #5A3D35",
"w. c #5D4543",
"e. c #4B342D",
"r. c #614541",
"t. c #54423D",
"y. c #593D38",
"u. c #4D392E",
"i. c #634942",
"p. c #492D25",
"a. c #4C3227",
"s. c #54392E",
"d. c #694E45",
"f. c #5C4237",
"g. c #51352D",
"h. c #5B433C",
"j. c #210F0B",
"k. c #5B4A46",
"l. c #61433C",
"z. c #514946",
"x. c #D2CEC9",
"c. c #BAB5B1",
"v. c #D3CDC5",
"b. c #C3C2BC",
"n. c #9A9B95",
"m. c #A4A29B",
"M. c #93948E",
"N. c #C3C0B7",
"B. c #B7B5AE",
"V. c #6B6C65",
"C. c #5C5D5A",
"Z. c #34322E",
"A. c #5A554F",
"S. c #7D827B",
"D. c #67695E",
"F. c #777D79",
"G. c #4D534D",
"H. c #2F302A",
"J. c #1F211C",
"K. c #3C3C38",
"L. c #AFB8B9",
"P. c #B4B5B2",
"I. c #1D1C21",
"U. c #2E2D2A",
"Y. c #797572",
"T. c #424241",
"R. c #3D403D",
"E. c #44413E",
"W. c #908B86",
"Q. c #53514E",
"!. c #544D4C",
"~. c #4C4B45",
"^. c #3B3935",
"/. c #8B8A86",
"(. c #5F4A49",
"). c #8C8582",
"_. c #453C3A",
"`. c #D9CFCC",
"'. c #DAD9D4",
"]. c #786F6B",
"[. c #C2BBB5",
"{. c #474841",
"}. c #C1BFBA",
"|. c #4C4D4A",
" X c #868884",
".X c #CCC6C3",
"XX c #979E97",
"oX c #918D8A",
"OX c #5D5653",
"+X c #929290",
"@X c #9C9D9A",
"#X c #DDD3D1",
"$X c #555E59",
"%X c #D9CFD0",
"&X c #1B0E10",
"*X c #615A55",
/* pixels */
"  . X o         . O O o O +           @   O   # # # # # # # # # # # # # # # # # #   $ X   @ X       + O o O   .       O   X X   ",
"% & * = - ; : > , & < 1 2 3 4 % 5 > 4 6 4 6 1 # # # # # # # # # # # # # # # # # # 1 6 4 < 4 > > 4 ; 3 3 1 7 4 , 8 : : 7 3 9 & 0 ",
"8 , . & , 9 q w e 9 & r 0 > > 9 t y u i 9 4 p # # # # # # # # # # # # # # # # # # r & p 8 p t q i > , 0 $ % p e w w 9 a % . 4 8 ",
"8 t s < , y d f 9 8 0   , g g 3 h j k 9 & 4 $ # # # # # # # # # # # # # # # # # # 1 4 & p u f h 3 > : 4 . 0 > 9 f d t : q l q 8 ",
"8 z . - : u x c v 8 & k < , > p b c @ u , n k # # # # # # # # # # # # # # # # # # O 4 4 $ @ c m M > : 7   % 5 v c x u > q O : N ",
"% < p & , n B V i 4 4 k 6 > 4 5 v C g 4 4 0 5 # # # # # # # # # # # # # # # # # # 5 6 : 4 > Z v > 4 > 7 k 4 & > V B , 4 , M 6 & ",
"p e u , 5 > A S 9 p i X 4 > D 9 9 D 9 D 9 9   # # # # # # # # # # # # # # # # # #   5 5 p 9 D 5 p p > 4 X > 9 9 u A 5 5 4 F p 9 ",
"G H J B K V K A L L A P k K L G J V G V V A V # # # # # # # # # # # # # # # # # # P A G B G B J K @ L A B K L L A A V K B P K G ",
"I U I Y T R E E W T T E E R Q ! T ~ ^ ^ / ( ) # # # # # # # # # # # # # # # # # # ) ( / ^ ^ ~ T ! W R E E _ T W T _ I R Y R ` R ",
"' ] [ ] [ { } ' { [ |  .' ..X.o.' } O.O.+.@.#.# # # # # # # # # # # # # # # # # # #.+.O.O.O.$.$.$.X.%.o.&.[ *.} $.o.{ [ *.[ *.%.",
"=.b x -. .x { ;.' ;.:...>.:.,.X.....{ O.+.+.<.# # # # # # # # # # # # # # # # # # <.+.O.O.[ X.1...>.2.>...:.' ;.' -.' [ -.x ....",
"S u e S L #.V S V V K A D X A V L L H G 3.P 3.# # # # # # # # # # # # # # # # # # P P 4.5.H 5.G 5.S A 6.A A V 7.7.P 8.G A $ 1 A ",
"M 1 N k B 8 g 9.* e k : 8 M p 8 u B 9 9 A p @ # # # # # # # # # # # # # # # # # # K u X p i B u 9 p p 8 z k e * 9.g i B k : 1 M ",
"0.0.q.l + 0 = 0 N : l w.% e.: q e + g 8 5 & o # # # # # # # # # # # # # # # # # # @ & 9 > , V e q , e.% r.M z N 0 t.0 + l y.0.0.",
"e.u.u.l @ e.e.- N N r i.u.0.u.0 . + 4 l 5 ,   # # # # # # # # # # # # # # # # # #   : 5 l 4 + . 0 % 0.u.i.O p.N - a.u.o * u.e., ",
"0 s.u.8 + - y.s.z a.l d.0.u.u.0 e o , 8 8 p $ # # # # # # # # # # # # # # # # # # O p 8 8 ,   O - u.e.0.d.l a.p.s.f.s.+ 8 u.- u.",
"a p.0.M + g.y.0.p.p.l y.% 0.0.% r o > M p 9 X # # # # # # # # # # # # # # # # # # K 5 M p : + l u.- 0.u.f.l p.p.g.y.u.+ p 0.a.p.",
"a a.0.9 B % y.- : p.l h.a a a 0 r o N M 5 > X # # # # # # # # # # # # # # # # # # A > 5 p : o r 0 : a a = s N N - y.g.V p g.a.p.",
"e.s.0.* . u.h.- : z O h.N : p.u.O + 9.e 9 g K # # # # # # # # # # # # # # # # # # K > i p > j.O u.: p.p.h.s z z - f.u.X 9 - s.a.",
"a 0.% u G z f.u.: a.e k.N z u.< . + z p 8 g A # # # # # # # # # # # # # # # # # # X n > 9 : + . 0 u.z z h.s z z u.f.a.K u u.s.z ",
"% q.q.9   u.l.e.p.p.l = : p.u.- s o , * 8 9.. # # # # # # # # # # # # # # # # # # X , 8 8 , o s - u.p.N f.e N p.a.f.u.  p - q.g.",
"a.g.0.s o a y.- z N s f.z p.: 0.O o : 8 5 > @ # # # # # # # # # # # # # # # # # # @ 8 8 M , + O 0 : p.a.t.r N a.0.f.a.o p s.g.a.",
"< - - p   0 f.- : : e h.e.4 N q * @ e.8 9.8 X # # # # # # # # # # # # # # # # # # . 9.8 8 4   s 0 N % 4 = r : z 0.y.u.. 9 - s.0.",
"q 0 0 u @ 0 q & 8 e.p z.0 q & & u @ g i > i A # # # # # # # # # # # # # # # # # # A 9 i i g + p & & t 4 k.* & > % q 0 V p < 0 0 ",
"x.c.x.U I d v.d I x.d _ d x.b.U _ ` n.m.M.,.O.# # # # # # # # # # # # # # # # # # O.>.M.^ n.! b.N.b.x._ d d v.v._ v.d I U b.B.v.",
":. . . . . .;.V.-. . .C.;...>.;.' ' O.O.O.+.Z.# # # # # # # # # # # # # # # # # # Z.+.O.O.A.$.V.S.>...;. .*. .-.V.;. .)  .D. .S.",
"o.....-. .;.[ =.;.;.;.F.:.2.2.X.$...{ G.O.+.H.# # # # # # # # # # # # # # # # # # H.G.O.G.D.1.V.S.F.S.F.:...;.o... .;.-.-.=.=.V.",
"A 6.6.A X 6.H S J H J.6.H K.L.,.[ P.<.I.P 7.3.# # # # # # # # # # # # # # # # # # J J.J J.<.P.D.S.P.K.H 6.H H P S H S A A D 6.X ",
"X A K X j.K L G K A 6.A @.U.Y.K.T.x T.@.A A G # # # # # # # # # # # # # # # # # # G A A c R.;.E.K.:.U.@.K 6.A A G V X @ X @ K A ",
"6 6 k i.2 4 > i & & G W.Q.Z.[ !.~.Q.^.-.!.A i # # # # # # # # # # # # # # # # # # i A !.D.K.Q.~.G.-.Z.+./.K ^.& i g , 2 (.F & & ",
"5 q k < N 9 t y S g c.o.U.G H 7.H H H i ).~.D # # # # # # # # # # # # # # # # # # F z.).Z.H J.H G H V H.V.c.g S t.t M N < k q 8 ",
"5 _.e 7 a.3 `.f u Z.'.n G G 5.5.L P A G & ).D # # # # # # # # # # # # # # # # # # D ).^.G A J L 5.5.G 7.Z.'.g u f `.3 : - u 0 * ",
"z : 1 % > p ].@.J g [.@.u u $   8 M 8 @ A.'.u # # # # # # # # # # # # # # # # # # u '.A.X 8 p 8 . $ $ k @.[.g J C.x p 8 < F g , ",
"% < F 4 > n v V U.& U {.8.4 M 5 5 : > u Q.B.6.# # # # # # # # # # # # # # # # # # D B.Q.u : : 8 p M 6 9 y }.& U.V B > > & D 6 & ",
"* 9 k > 4 p D u i 9 ). .i k.q p % 7 % i ) /.D # # # # # # # # # # # # # # # # # # D ).) > % q 4 9 2 w.> ) ).9 U.A D p 4 > F 9 e ",
"X L @ L J L V G P V Q./.w 9 , k > : p z./.|.C # # # # # # # # # # # # # # # # # # C ~.).z.i > i k > > t W.!.V J G V V J V K V X ",
"d B.R Y E R _ _ _ _ H ~.B.R.8.{ [ 5 6 j |.H O.# # # # # # # # # # # # # # # # # # O.A G.j _.i [ { 9 E.B.~.H x.T _ _ I _ ` R P.d ",
"x -.] [ [ [ ..} -.C.[ J.~.M.G.'.'.!.M.+.5.+.H.# # # # # # # # # # # # # # # # # # U.+.7.Q./ !.'.'.|.M.~.7.[  .{ V.;. .[ | *.{ V.",
"=.;.X.] *.;. .:.V...;.;.J.^.H.>./.U.^.G C.+.H.# # # # # # # # # # # # # # # # # # <.+.C.5.^.Z./. XH.^.J.;.x Y.V.:. .=.] *.X.=.=.",
"J.u A S J.S A A V V S S u B S  . .G H H C P V # # # # # # # # # # # # # # # # # # L 3.3.V H G  .] S 5.u S S V @ G G S J.S H 6.K ",
"8 * 8 u B 5 > 9.p p . , 9 9 u X B B i X u p L # # # # # # # # # # # # # # # # # # V 9 k A 9 3.B X u 9 9 g . p p > 8 9 B k 8 8 8 ",
"g.- - 5 X e.t.0 p.: l h.e.& e.e.e   g 8 > ;   # # # # # # # # # # # # # # # # # # . > > > ,   * e.e.0 , = l z z - f.e.X M - 0.u.",
"p.a.u.M   p.0.0.z z l i.g.0 u.u.s + 9.8 8 N   # # # # # # # # # # # # # # # # # # X 8 > M z + e u.a.w 0 l.l z p.- g.z   M u.a a.",
"g.s.- M @ e.f.- p.z l i.u.- , w s + , 8 8 > k # # # # # # # # # # # # # # # # # # k > 8 8 , + e < a.0 u.d.e z p.- y.u.  M q.s.u.",
"z a.u.* @ e.= u.z z s i.a.0 u.e.e B i e e 9 . # # # # # # # # # # # # # # # # # # X 9 e e 9.B $ e.u.& e.k.s z z u.f.a.@ p g.a.a.",
"N a.a.9 X 0 f.0 z N r l.p.z , 0 r B 9.9 9 9 K # # # # # # # # # # # # # # # # # # X 9 9 9 g + $ 0., z p.h.e z z u.f.u.. 9 a.p.z ",
"a.s.0.9 @ e.h.0 a.N r l.p.p.e.0.O B > i 8 > k # # # # # # # # # # # # # # # # # # X > 5 8 9.v O 0., z a.h.l N z 0.= u.@ p 0.s.a.",
"u.a.u.p @ , f.u.z N r l.a : e.% r + 9.8 8 8 X # # # # # # # # # # # # # # # # # # k i 8 9 9.o r g.u., p.f.s N a.u.f.a.+ 9 0.g.e.",
"a.y.0.l o - f.0 N a.O h.: : % % r . 9.* , > X # # # # # # # # # # # # # # # # # # X 9., 9 , o e e.e.z N w.s z N g.- - o * - y.a ",
"z % q.l + z - - p.N l f.e.N a 2 . j.& * p i   # # # # # # # # # # # # # # # # # # o 9 * e , B . 2 , N e.y.l p.z - f.p.+ s - 0.: ",
"u.y.- e . % w.- : a.l r.a e.: 0 e + , 5 > 4 O # # # # # # # # # # # # # # # # # # . & > i , o e 0 N , a r.r e.N - f.u.. e - y.< ",
"e.- z 8 + e.2 & 8 , * w.7 2 6 4 9 G i n p M @ # # # # # # # # # # # # # # # # # #   p 9 g g H 9 4 0 7 7 w.M 4 8 4 t., + 8 , 2 % ",
"b.[.v.c._ _ I _ T v._ d d .X.X! T ! XXXXoX/.@.# # # # # # # # # # # # # # # # # # OX/ +X@XXX~ T ! Q .X#X`._ _ _ T I v._ U x.[.R ",
";.] D.] ] { ' ' { ]  .C.;.=.S.$.1.$.O.O.G.] 8.# # # # # # # # # # # # # # # # # # U.O.G.O.$X$.%.$.S.X.x )  .*.{ ' ' { ] ] D.] ' ",
"=.;.;.{ D.'  .;.V.=...:.S.S.:.' =.=. .O.Q.O.<.# # # # # # # # # # # # # # # # # # <.O.+.+.[ ....;.2.S.F.F.=...V.=.D.V.D.D.=.;.;.",
"S u S V A 6.H S V 5.S H S A A V H L A J.J J C # # # # # # # # # # # # # # # # # # 3.3.P A A V G G A A 6.H S V 5.H H S H H u S F ",
"+   @ @ . K K X X k u V k V X K   X @   X k X # # # # # # # # # # # # # # # # # # K k @ X @ K   X A V u B u .   X K @ X @ X   X ",
"0 0 * t.w , g > , 4 t e t 3 4 4 5 : & 6 ; % 1 # # # # # # # # # # # # # # # # # # 1 & , 0 : : > 4 g t.t.u q & , 9.9.z 2 3 M < < ",
"9 , . % 4 i q q u 9 & $ < : > 5 t._.u > 5 ; p # # # # # # # # # # # # # # # # # # r 4 5 9 u w t.9 8 z e.e , * * w w 9 , & k 4 5 ",
"9.w e < , y %Xj 9 i < k 4 : > y v.f u p & ; $ # # # # # # # # # # # # # # # # # # r z & * u f v.t.: : &   0 i 8.f `.w , q e < > ",
"> z k q N D ].c &X> 6 $ < ; ; p Y.c V D 4 ; r # # # # # # # # # # # # # # # # # # r : : D B *Xb * : : 7 O 0 5 v OX].e > < k n > ",
"& _.p 4 4 4 &XG i 6 4 F 7 > 4 i v 3.> 6 n 6 5 # # # # # # # # # # # # # # # # # # 5 6 n & i Z Z i 6 > < 1 4 & i G B , ; 4 9 _.6 ",
"9 D k % 5 i A F p p > K n > D p > D p 9 p p   # # # # # # # # # # # # # # # # # # A p i p D p i 9 p i ; X i D 5 k A > 5 % F D p ",
"X K &X&XK &XK X &XL G &Xk &XV L &Xv K &XK L V # # # # # # # # # # # # # # # # # # L K K &XK &X&XV V L F P K L &XK K &X  v v K K "
};
