/* XPM */
static char *bca53afb36d34b93fc730cb408f14449Gi3IvOxHytEzjr1q[] = {
/* columns rows colors chars-per-pixel */
"64 64 191 2 ",
"   c #2A1514",
".  c #2B1A15",
"X  c #321C17",
"o  c #28150F",
"O  c #23130D",
"+  c #231513",
"@  c black",
"#  c #321D1B",
"$  c #241A15",
"%  c #3C2D2A",
"&  c #44322D",
"*  c #453835",
"=  c #4B3738",
"-  c #301F25",
";  c #523C3B",
":  c #544341",
">  c #443432",
",  c #4A3632",
"<  c #392729",
"1  c #463638",
"2  c #442F30",
"3  c #50373A",
"4  c #3B2A25",
"5  c #4A443B",
"6  c #33221D",
"7  c #342924",
"8  c #391F1A",
"9  c #4C3A34",
"0  c #4B413C",
"q  c #4C4442",
"w  c #2C221D",
"e  c #352B2A",
"r  c #332523",
"t  c #4C3B39",
"y  c #ABA29C",
"u  c #3C312C",
"i  c #D5C7C4",
"p  c #AEACA8",
"a  c #2B1C1B",
"s  c #422E2A",
"d  c #625654",
"f  c #1B0E0B",
"g  c #7A736F",
"h  c #3E3332",
"j  c #81726F",
"k  c #392523",
"l  c #1C1412",
"z  c #0D0A06",
"x  c #160A06",
"c  c #24221C",
"v  c #2D2422",
"b  c #231C1A",
"n  c #1A1418",
"m  c #151412",
"M  c #221719",
"N  c #1C1A15",
"B  c #14110D",
"V  c #1C120D",
"C  c #D3D2D0",
"Z  c #C7CCC8",
"A  c #CED1CC",
"S  c #CECECB",
"D  c #C4C5C2",
"F  c #BFC1BD",
"G  c #B7BDB6",
"H  c #9CA09C",
"J  c #8D8B89",
"K  c #868789",
"L  c #625E5A",
"P  c #D4D2CC",
"I  c #6D726C",
"U  c #656A64",
"Y  c #636561",
"T  c #5D6864",
"R  c #62635D",
"E  c #747571",
"W  c #757973",
"Q  c #6B6E6A",
"!  c #676D69",
"~  c #555A55",
"^  c #545552",
"/  c #5B5A55",
"(  c #272926",
")  c #67726B",
"_  c #6C7471",
"`  c #5C6463",
"'  c #5D625C",
"]  c #72736D",
"[  c #7A7B75",
"{  c #82837E",
"}  c #838782",
"|  c #353532",
" . c #6E7870",
".. c #7A7D7A",
"X. c #1D1C19",
"o. c #140E0B",
"O. c #120E11",
"+. c #171813",
"@. c #252421",
"#. c #171C19",
"$. c #3D3327",
"%. c #36281F",
"&. c #443026",
"*. c #442D25",
"=. c #39231C",
"-. c #5D4543",
";. c #4B342D",
":. c #614541",
">. c #533A34",
",. c #634942",
"<. c #4D392E",
"1. c #523632",
"2. c #492D25",
"3. c #54392E",
"4. c #4C3227",
"5. c #694E45",
"6. c #593D38",
"7. c #5C4237",
"8. c #51352D",
"9. c #5B433C",
"0. c #4A2E2A",
"q. c #5A453A",
"w. c #352116",
"e. c #210F0B",
"r. c #5B4A46",
"t. c #54423D",
"y. c #514946",
"u. c #DAD2CD",
"i. c #CDCCC6",
"p. c #D2CEC9",
"a. c #C3C2BC",
"s. c #BCBBB5",
"d. c #BCBDBA",
"f. c #9A9B95",
"g. c #A4A29B",
"h. c #93948E",
"j. c #C3C0B7",
"k. c #D3CDC5",
"l. c #6B6C65",
"z. c #696562",
"x. c #5C5D5A",
"c. c #34322E",
"v. c #5A554F",
"b. c #7D827B",
"n. c #76786D",
"m. c #777D79",
"M. c #4D534D",
"N. c #2F302A",
"B. c #67695E",
"V. c #1F211C",
"C. c #3C3C38",
"Z. c #AFB8B9",
"A. c #B4B5B2",
"S. c #1D1C21",
"D. c #2E2D2A",
"F. c #797572",
"G. c #424241",
"H. c #756E6B",
"J. c #3D403D",
"K. c #44413E",
"L. c #908B86",
"P. c #53514E",
"I. c #544D4C",
"U. c #4C4B45",
"Y. c #3B3935",
"T. c #8B8A86",
"R. c #BAB5B1",
"E. c #8C8582",
"W. c #2B1E21",
"Q. c #DAD9D4",
"!. c #C2BBB5",
"~. c #474841",
"^. c #2C2922",
"/. c #B7B5AE",
"(. c #C1BFBA",
"). c #4C4D4A",
"_. c #453C3A",
"`. c #868884",
"'. c #5B6157",
"]. c #61433C",
"[. c #CCC6C3",
"{. c #979E97",
"}. c #918D8A",
"|. c #5D5653",
" X c #929290",
".X c #9C9D9A",
"XX c #DDD3D1",
"oX c #D9CFCC",
"OX c #555E59",
"+X c #1B0E10",
"@X c #615A55",
/* pixels */
"  . X X o X O           +   X   @ @ @ @ @ @ @ @ @ @ @ @ @ @ @ @ @ @ @ @ @ @ @ @ @ @ @ @ @ @ @ @   # $   + $       O X o X   .   ",
"% & * = - ; : > , < % > 1 > 1 - @ @ @ @ @ @ @ @ @ @ @ @ @ @ @ @ @ @ @ @ @ @ @ @ @ @ @ @ @ @ @ @ - 1 > = > % % > 2 : : - 3 > & 4 ",
"5 6 7 * 8 9 % % 7 0 q w e 7 > r @ @ @ @ @ @ @ @ @ @ @ @ @ @ @ @ @ @ @ @ @ @ @ @ @ @ @ @ @ @ @ @ 8 * r 4 r 0 t e % & 9 # , r 6 5 ",
"y 7 4 9   & u u : i p a 7 * > # @ @ @ @ @ @ @ @ @ @ @ @ @ @ @ @ @ @ @ @ @ @ @ @ @ @ @ @ @ @ @ @ - > * r w y i : % s > . 9 % 7 y ",
"d f 4 * a = & % r g d + w & h a @ @ @ @ @ @ @ @ @ @ @ @ @ @ @ @ @ @ @ @ @ @ @ @ @ @ @ @ @ @ @ @ X > > # + d j k % s 3   , < f d ",
"l e > > a 1 % > < f z u > > 9 < @ @ @ @ @ @ @ @ @ @ @ @ @ @ @ @ @ @ @ @ @ @ @ @ @ @ @ @ @ @ @ @ < 1 s > % x f % > % 3 a > * % l ",
"c 7 r e $ > % v 7 7 v 7 v 7 7   @ @ @ @ @ @ @ @ @ @ @ @ @ @ @ @ @ @ @ @ @ @ @ @ @ @ @ @ @ @ @ @   < < r 7 v < r r % > $ % 7 7 w ",
"b n n b m a M n N B l N l l b l @ @ @ @ @ @ @ @ @ @ @ @ @ @ @ @ @ @ @ @ @ @ @ @ @ @ @ @ @ @ @ @ m b N V N V B M + n b V M n n b ",
"C Z A A C C S D F A G H H J K L @ @ @ @ @ @ @ @ @ @ @ @ @ @ @ @ @ @ @ @ @ @ @ @ @ @ @ @ @ @ @ @ L K J H H G A F Z S C C P A Z A ",
"I U Y T R I E W Q I ! ~ ~ ^ / ( @ @ @ @ @ @ @ @ @ @ @ @ @ @ @ @ @ @ @ @ @ @ @ @ @ @ @ @ @ @ @ @ ( ^ ~ ~ ~ ) ) ) W _ Q ` Y ' ! ) ",
"] I ] [ E { [ } W E E U ~ ^ ^ | @ @ @ @ @ @ @ @ @ @ @ @ @ @ @ @ @ @ @ @ @ @ @ @ @ @ @ @ @ @ @ @ | ^ ~ ~ Y W  .E { ..{ E [ I ] I ",
"c l l M b v $ b l n n X.N o.m o.@ @ @ @ @ @ @ @ @ @ @ @ @ @ @ @ @ @ @ @ @ @ @ @ @ @ @ @ @ @ @ @ m m O.+.X.+.N +.c b @.b b l #.#.",
"$.%.6 a s 4 k r 4 w V 7 7 b r + @ @ @ @ @ @ @ @ @ @ @ @ @ @ @ @ @ @ @ @ @ @ @ @ @ @ @ @ @ @ @ @ M w $ r e V w 7 r r 4 &.a 6 %.$.",
"9 *.s =.-., ;.s t 6 O u 4 < * o @ @ @ @ @ @ @ @ @ @ @ @ @ @ @ @ @ @ @ @ @ @ @ @ @ @ @ @ @ @ @ @ + * 7 % & l 6 t & ;., :.k &.*.9 ",
">.*.*.8 ,.<.1.<.9 . O > =.< &   @ @ @ @ @ @ @ @ @ @ @ @ @ @ @ @ @ @ @ @ @ @ @ @ @ @ @ @ @ @ @ @   s < =.> O . 9 , 1.<.,.X 2.*.>.",
"3.&.4.=.5.1.<.<.9 6 o & 4 4 r # @ @ @ @ @ @ @ @ @ @ @ @ @ @ @ @ @ @ @ @ @ @ @ @ @ @ @ @ @ @ @ @ X r 4 4 &   X >.<.;.1.5.=.4.2.3.",
"1.2.2.=.6., 1.1., 8 o % k r 7 $ @ @ @ @ @ @ @ @ @ @ @ @ @ @ @ @ @ @ @ @ @ @ @ @ @ @ @ @ @ @ @ @ M < k r s O =.<.>.1.<.7.=.2.2.8.",
">.s 2.=.9.0.0.0.9 8 o *.k < % $ @ @ @ @ @ @ @ @ @ @ @ @ @ @ @ @ @ @ @ @ @ @ @ @ @ @ @ @ @ @ @ @ b % < r s o 8 9 s 0.0.q.w.*.*.>.",
">.s &.X 9.*.s 2.<.X O $.6 7 u M @ @ @ @ @ @ @ @ @ @ @ @ @ @ @ @ @ @ @ @ @ @ @ @ @ @ @ @ @ @ @ @ M % e r % e.X <.s 2.2.9.w.&.&.>.",
"<.s 4.6 r.*.&.<.= . O &.r 4 u b @ @ @ @ @ @ @ @ @ @ @ @ @ @ @ @ @ @ @ @ @ @ @ @ @ @ @ @ @ @ @ @ $ h % 7 s O . 9 <.&.&.9.w.&.&.<.",
";.2.2.=.q.s 2.<.>.w.o & %.4 $.. @ @ @ @ @ @ @ @ @ @ @ @ @ @ @ @ @ @ @ @ @ @ @ @ @ @ @ @ @ @ @ @ $ & 4 4 & o w.>.<.2.*.7.6 *.2.4.",
">.&.*.w.7.&.2.s 1.X o s 4 < % + @ @ @ @ @ @ @ @ @ @ @ @ @ @ @ @ @ @ @ @ @ @ @ @ @ @ @ @ @ @ @ @ + 4 4 k & O X 9 s 2.4.t.8 *.4.1.",
">.s s 6 9.;.> *.t %.+ ;.4 $.4 $ @ @ @ @ @ @ @ @ @ @ @ @ @ @ @ @ @ @ @ @ @ @ @ @ @ @ @ @ @ @ @ @ . $.4 4 >   w.9 *., > q.8 s &.1.",
"* 4 ;.r y.9 t * * w + u e % e b @ @ @ @ @ @ @ @ @ @ @ @ @ @ @ @ @ @ @ @ @ @ @ @ @ @ @ @ @ @ @ @ b 7 e e u O r * * 0 > r.%.* % , ",
"u.i.p.u.P u.p.a.s.P d.f.g.h.} ~ @ @ @ @ @ @ @ @ @ @ @ @ @ @ @ @ @ @ @ @ @ @ @ @ @ @ @ @ @ @ @ @ ~ { h.H f.F a.j.a.p.P u.u.k.k.P ",
"l.z.R R x.] E { ] I I ~ ~ ~ ^ c.@ @ @ @ @ @ @ @ @ @ @ @ @ @ @ @ @ @ @ @ @ @ @ @ @ @ @ @ @ @ @ @ c.^ ~ ~ v.) l.b.{ E ] R ' R z.l.",
"n.] ] ] m.[ ....W ) E U M.~ ^ N.@ @ @ @ @ @ @ @ @ @ @ @ @ @ @ @ @ @ @ @ @ @ @ @ @ @ @ @ @ @ @ @ N.M.~ M.B. .l.b.m.b.m.[ E ] Q E ",
"c B X.V.@.X.C.Z.} Y A.| S.m #.o.@ @ @ @ @ @ @ @ @ @ @ @ @ @ @ @ @ @ @ @ @ @ @ @ @ @ @ @ @ @ @ @ B V.B V.| A.B.b.A.C.X.@.X.X.m c ",
"N M b @.b / D.F.C.G.H.G./ b b N @ @ @ @ @ @ @ @ @ @ @ @ @ @ @ @ @ @ @ @ @ @ @ @ @ @ @ @ @ @ @ @ N b b d J.] K.C.[ D./ M @.b b N ",
"e * * N L.P.c.Y I.U.P.Y.z.I.b e @ @ @ @ @ @ @ @ @ @ @ @ @ @ @ @ @ @ @ @ @ @ @ @ @ @ @ @ @ @ @ @ e b I.B.C.P.U.M.z.c.^ T.M Y.* e ",
"q c u R.Q D.N X.#.X.X.X.e E.U.v @ @ @ @ @ @ @ @ @ @ @ @ @ @ @ @ @ @ @ @ @ @ @ @ @ @ @ @ @ @ @ @ W.y.E.c.X.V.X.N X.l N.l.R.u c t.",
"y w c.Q.h N N +.+.n m b N * E.v @ @ @ @ @ @ @ @ @ @ @ @ @ @ @ @ @ @ @ @ @ @ @ @ @ @ @ @ @ @ @ @ v E.Y.N b B n +.+.N #.c.Q.u w y ",
"/ B u !./ w w #   4 k 4 + v.Q.w @ @ @ @ @ @ @ @ @ @ @ @ @ @ @ @ @ @ @ @ @ @ @ @ @ @ @ @ @ @ @ @ w Q.v.$ 4 r 4 . # # a / !.u B x.",
"l D.* s.~.^.> k < < s % w P./.@.@ @ @ @ @ @ @ @ @ @ @ @ @ @ @ @ @ @ @ @ @ @ @ @ @ @ @ @ @ @ @ @ v /.P.w s s 4 r k 1 7 q (.* D.l ",
"w e 7 E.R e r.t r , 3 , e L T.v @ @ @ @ @ @ @ @ @ @ @ @ @ @ @ @ @ @ @ @ @ @ @ @ @ @ @ @ @ @ @ @ v E.L % , t > 7 ; -.% L E.7 D.b ",
"N m l P.T.5 7 & a % s r y.T.).z @ @ @ @ @ @ @ @ @ @ @ @ @ @ @ @ @ @ @ @ @ @ @ @ @ @ @ @ @ @ @ @ z U.E.y.e % e a % % 0 L.I.l B N ",
"P P P X.U./.J.^.U Y < 1 p ).X.~ @ @ @ @ @ @ @ @ @ @ @ @ @ @ @ @ @ @ @ @ @ @ @ @ @ @ @ @ @ @ @ @ ~ b M.p _.e Y U 7 K./.U.X.p.A P ",
"! z.x.Y V.U.h.M.Q.Q.I.h.^ +.^ N.@ @ @ @ @ @ @ @ @ @ @ @ @ @ @ @ @ @ @ @ @ @ @ @ @ @ @ @ @ @ @ @ D.^ #.P.J I.Q.Q.).h.U.#.Y R U l.",
"[ l.E ] ] V.Y.N.{ T.D.Y.N x.^ N.@ @ @ @ @ @ @ @ @ @ @ @ @ @ @ @ @ @ @ @ @ @ @ @ @ @ @ @ @ @ @ @ | ^ x.+.Y.c.T.`.N.Y.V.] H.F.l.[ ",
"b l l c c w V c R R N X.X.z m l @ @ @ @ @ @ @ @ @ @ @ @ @ @ @ @ @ @ @ @ @ @ @ @ @ @ @ @ @ @ @ @ n o.o.l X.N R '.c +.w c c l + N ",
"$.r r . & 7 7 w $ V V e $ w r n @ @ @ @ @ @ @ @ @ @ @ @ @ @ @ @ @ @ @ @ @ @ @ @ @ @ @ @ @ @ @ @ l 7 a b 7 o.V $ w 7 7 u . r r % ",
"9 2.s =.9.;.* ;.;.6   u 4 % 2   @ @ @ @ @ @ @ @ @ @ @ @ @ @ @ @ @ @ @ @ @ @ @ @ @ @ @ @ @ @ @ @ . % % % &   %.;.;.9 & q.=.&.&.>.",
"1.&.&.=.,.8.9 <.<.w.O $.4 4 *.  @ @ @ @ @ @ @ @ @ @ @ @ @ @ @ @ @ @ @ @ @ @ @ @ @ @ @ @ @ @ @ @ $ 4 % k &.O 6 <.4.5 9 ].=.&.2.>.",
">.2.&.=.,.<.>.& 5 w.O & 4 4 % a @ @ @ @ @ @ @ @ @ @ @ @ @ @ @ @ @ @ @ @ @ @ @ @ @ @ @ @ @ @ @ @ a % 4 4 & O 6 = 4.9 <.5.6 &.2.>.",
"<.&.&.w.,.4.9 <.;.6 V e 6 6 7 . @ @ @ @ @ @ @ @ @ @ @ @ @ @ @ @ @ @ @ @ @ @ @ @ @ @ @ @ @ @ @ @ $ 7 6 6 $.V # ;.<.* ;.r.w.&.&.<.",
"9 &.*.8 ].2.&.& 9 8 V $.7 7 7 M @ @ @ @ @ @ @ @ @ @ @ @ @ @ @ @ @ @ @ @ @ @ @ @ @ @ @ @ @ @ @ @ $ 7 7 7 u O # 1.& &.2.9.6 &.&.<.",
"9 4.*.8 ].2.2.;.1.X V % e 4 % a @ @ @ @ @ @ @ @ @ @ @ @ @ @ @ @ @ @ @ @ @ @ @ @ @ @ @ @ @ @ @ @ $ % < 4 $.f X 1.& &.4.9.=.*.&.1.",
"<.&.*.8 ].0.s ;., 8 O $.4 4 4 $ @ @ @ @ @ @ @ @ @ @ @ @ @ @ @ @ @ @ @ @ @ @ @ @ @ @ @ @ @ @ @ @ a e 4 7 $.o 8 8.<.& 2.7.w.*.4.<.",
"9 *.4.X 9.s s , , 8 . $.%.& % $ @ @ @ @ @ @ @ @ @ @ @ @ @ @ @ @ @ @ @ @ @ @ @ @ @ @ @ @ @ @ @ @ $ $.& 7 & o 6 ;.;.&.*.-.w.&.*.8.",
">.2.*.=.7.;.*.0.; . e.* %.r e   @ @ @ @ @ @ @ @ @ @ @ @ @ @ @ @ @ @ @ @ @ @ @ @ @ @ @ @ @ @ @ @ o 7 %.6 & V . ; & *.;.6.=.2.&.>.",
">.s 4.=.:.0.;.s 9 6 O & < % > X @ @ @ @ @ @ @ @ @ @ @ @ @ @ @ @ @ @ @ @ @ @ @ @ @ @ @ @ @ @ @ @ . * % e & o 6 9 *.& 0.:.8 ;.*.>.",
"* 4 & %.-.3 ; 1 > 7 N e h r k + @ @ @ @ @ @ @ @ @ @ @ @ @ @ @ @ @ @ @ @ @ @ @ @ @ @ @ @ @ @ @ @   r 7 u u X.7 > 9 3 3 -.k > 4 > ",
"P A k.P u.u.[.[.F A F {.{.}.T./ @ @ @ @ @ @ @ @ @ @ @ @ @ @ @ @ @ @ @ @ @ @ @ @ @ @ @ @ @ @ @ @ |.J  X.X{.G A F D [.XXoXP P P A ",
"I U '.R x.] n.b.)  .) ~ ~ M.'.^.@ @ @ @ @ @ @ @ @ @ @ @ @ @ @ @ @ @ @ @ @ @ @ @ @ @ @ @ @ @ @ @ D.~ M.~ OX) _ ) b.W H.L R ' U I ",
"] l.n.E [ b.b.[ I n.n.R ~ P.~ | @ @ @ @ @ @ @ @ @ @ @ @ @ @ @ @ @ @ @ @ @ @ @ @ @ @ @ @ @ @ @ @ | ~ ^ ^ Y E E ] ..b.m.m.n.E l.n.",
"c l +.c X.c b b l X.n b V.B B z @ @ @ @ @ @ @ @ @ @ @ @ @ @ @ @ @ @ @ @ @ @ @ @ @ @ @ @ @ @ @ @ o.o.m b b l N N b b @.X.c l +.X.",
"$ $ a w l a l $ M   $ +   $ a $ @ @ @ @ @ @ @ @ @ @ @ @ @ @ @ @ @ @ @ @ @ @ @ @ @ @ @ @ @ @ @ @ M a + $ + M   $ b l w V w .   $ ",
"% & > 0 6 0 : > > < s * 1 2 , - @ @ @ @ @ @ @ @ @ @ @ @ @ @ @ @ @ @ @ @ @ @ @ @ @ @ @ @ @ @ @ @ - * & 9 s s % > u t.t.w t * & $.",
"t w 7 * # = s % < t._.w % < 2 r @ @ @ @ @ @ @ @ @ @ @ @ @ @ @ @ @ @ @ @ @ @ @ @ @ @ @ @ @ @ @ @ 8 > < 7 w 5 t.7 4 &.;.6 & %.%.5 ",
"p 7 e = a > s % q k.y w r * 2 # @ @ @ @ @ @ @ @ @ @ @ @ @ @ @ @ @ @ @ @ @ @ @ @ @ @ @ @ @ @ @ @ 8 &.* %.w y k.t.s s *   9 e ^.y ",
"d +X% 1 # = 2 2 r F.d l v > 2 8 @ @ @ @ @ @ @ @ @ @ @ @ @ @ @ @ @ @ @ @ @ @ @ @ @ @ @ @ @ @ @ @ 8 s s v V @Xg %.s s 3 X 9 < f |.",
"N e 1 > W.3 % > e f o.% 1 h 1 < @ @ @ @ @ @ @ @ @ @ @ @ @ @ @ @ @ @ @ @ @ @ @ @ @ @ @ @ @ @ @ @ < 1 h * e x x e 1 % = - > * e N ",
"W.r r % M h % v r % v r 7 r r   @ @ @ @ @ @ @ @ @ @ @ @ @ @ @ @ @ @ @ @ @ @ @ @ @ @ @ @ @ @ @ @ b r e r v r e 7 r e 2 $ e v < a ",
"$ +Xn N +Xa +Xl n +Xf M +XM n l @ @ @ @ @ @ @ @ @ @ @ @ @ @ @ @ @ @ @ @ @ @ @ @ @ @ @ @ @ @ @ @ n M M +XM +X+Xl l n W.m M n +XM "
};
