/* XPM */
static char *c2xpbWU_[] = {
/* columns rows colors chars-per-pixel */
"14 14 15 1 ",
"  c black",
". c #160F13",
"X c #21110D",
"o c #2E221F",
"O c #0C3E24",
"+ c #0C6E2F",
"@ c #0D6F2F",
"# c #1D235D",
"$ c #9E2E46",
"% c #0ED145",
"& c #33418A",
"* c #425B9E",
"= c #4D8AB3",
"- c #65B1B8",
"; c white",
/* pixels */
"%%%%XXXXXXX%%%",
"%%%########X%%",
"%%#*=======#X%",
"%#*==------*#%",
"%#==--------#%",
"%#==--; -- -*#",
"#*=---  -- -=#",
"#*=-&&-----&=#",
"#*=--&&&&&&-=#",
"#**=--$$&&-=*#",
"@#**=======**#",
"@@O*********#@",
"@OOO.o.o.o.OOO",
"%%%@++++++++%%"
};
