/* XPM */
static char *d2FsbA__[] = {
/* columns rows colors chars-per-pixel */
"28 28 6 1 ",
"  c #21110D",
". c #503625",
"X c #0C6E2F",
"o c #755338",
"O c #9D7658",
"+ c #0ED145",
/* pixels */
"++++++++              ++++++",
"++++++++              ++++++",
"++++++  ooOOOOOOOOOOoo  ++++",
"++++++  ooOOOOOOOOOOoo  ++++",
"++++  ooOOOOooooooOOOOoo  ++",
"++++  ooOOOOooooooOOOOoo  ++",
"++++  ooOOOOooooooOOOOoo  ++",
"++++  ooOOOOooooooOOOOoo  ++",
"++++  ..ooOOOOOOOOOOoo..  ++",
"++++  ..ooOOOOOOOOOOoo..  ++",
"++++++  ..oooooooooo..  ++++",
"++++++  ..oooooooooo..  ++++",
"++++++                  ++++",
"++++++                  ++++",
"++++++  ....oo..oooo..  ++++",
"++++++  ....oo..oooo..  ++++",
"++++++  ..oooooo..oo..  ++++",
"++++++  ..oooooo..oo..  ++++",
"++++++  ..oooooo..oo..  ++++",
"++++++  ..oooooo..oo..  ++++",
"++++XX  ..oo..oooooo..  XX++",
"++++XX  ..oo..oooooo..  XX++",
"++++XX  ....  oooo....  XX++",
"++++XX  ....  oooo....  XX++",
"++XXXXXX  ..  ..  ..  XXXXXX",
"++XXXXXX  ..  ..  ..  XXXXXX",
"++++++XXXXXXXXXXXXXXXXXX++++",
"++++++XXXXXXXXXXXXXXXXXX++++"
};
