/* XPM */
static char *c6cf89fbca8c49b1f721dd4b6b7ed4a5fumh06CevIyXafAV[] = {
/* columns rows colors chars-per-pixel */
"64 64 199 2 ",
"   c #241A15",
".  c #2A1514",
"X  c #2B1A15",
"o  c #28150F",
"O  c #321C17",
"+  c #23130D",
"@  c #231513",
"#  c black",
"$  c #321D1B",
"%  c #463638",
"&  c #3C2D2A",
"*  c #422E2A",
"=  c #4A3632",
"-  c #453835",
";  c #36281F",
":  c #5A453A",
">  c #533A34",
",  c #442F30",
"<  c #44322D",
"1  c #4B3738",
"2  c #301F25",
"3  c #523C3B",
"4  c #544341",
"5  c #443432",
"6  c #392729",
"7  c #50373A",
"8  c #3B2A25",
"9  c #342924",
"0  c #4C3A34",
"q  c #442D25",
"w  c #3D3327",
"e  c #2C2922",
"r  c #4A443B",
"t  c #4C3B39",
"y  c #33221D",
"u  c #391F1A",
"i  c #4B413C",
"p  c #4C4442",
"a  c #2C221D",
"s  c #352B2A",
"d  c #332523",
"f  c #4A2E2A",
"g  c #474841",
"h  c #CED1CC",
"j  c #ABA29C",
"k  c #352116",
"l  c #DAD2CD",
"z  c #3C312C",
"x  c #D5C7C4",
"c  c #AEACA8",
"v  c #2B1C1B",
"b  c #39231C",
"n  c #A4A29B",
"m  c #CDCCC6",
"M  c #2E2D2A",
"N  c #7A736F",
"B  c #5A554F",
"V  c #1B0E0B",
"C  c #443026",
"Z  c #756E6B",
"A  c #625654",
"S  c #3E3332",
"D  c #81726F",
"F  c #392523",
"G  c #1C120D",
"H  c #76786D",
"J  c #140E0B",
"K  c #1C1412",
"L  c #0D0A06",
"P  c #160A06",
"I  c #2B1E21",
"U  c #231C1A",
"Y  c #24221C",
"T  c #2D2422",
"R  c #1A1418",
"E  c #221719",
"W  c #1C1A15",
"Q  c #1D1C19",
"!  c #14110D",
"~  c #151412",
"^  c #868789",
"/  c #BCBDBA",
"(  c #BFC1BD",
")  c #BCBBB5",
"_  c #B7BCB9",
"`  c #CECECB",
"'  c #D3D2D0",
"]  c #C7CCC8",
"[  c #C4C5C2",
"{  c #B7BDB6",
"}  c #9CA09C",
"|  c #8D8B89",
" . c #625E5A",
".. c #D4D2CC",
"X. c #C1BFBA",
"o. c #4C4D4A",
"O. c #5C6463",
"+. c #636561",
"@. c #6C7471",
"#. c #7D827B",
"$. c #6D726C",
"%. c #5B6157",
"&. c #656A64",
"*. c #676D69",
"=. c #5D6864",
"-. c #62635D",
";. c #747571",
":. c #757973",
">. c #6B6E6A",
",. c #555A55",
"<. c #545552",
"1. c #5B5A55",
"2. c #272926",
"3. c #67726B",
"4. c #5D625C",
"5. c #777D79",
"6. c #464C4B",
"7. c #696562",
"8. c #72736D",
"9. c #7A7B75",
"0. c #82837E",
"q. c #838782",
"w. c #353532",
"e. c #6E7870",
"r. c #7A7D7A",
"t. c #1D1C21",
"y. c #120E11",
"u. c #171813",
"i. c #252421",
"p. c #171C19",
"a. c #1F211C",
"s. c #523632",
"d. c #5A3D35",
"f. c #5D4543",
"g. c #4B342D",
"h. c #614541",
"j. c #54423D",
"k. c #593D38",
"l. c #4D392E",
"z. c #634942",
"x. c #492D25",
"c. c #4C3227",
"v. c #54392E",
"b. c #694E45",
"n. c #5C4237",
"m. c #51352D",
"M. c #5B433C",
"N. c #210F0B",
"B. c #5B4A46",
"V. c #61433C",
"C. c #514946",
"Z. c #979E97",
"A. c #C3C2BC",
"S. c #D2CEC9",
"D. c #BAB5B1",
"F. c #D3CDC5",
"G. c #9A9B95",
"H. c #93948E",
"J. c #C3C0B7",
"K. c #B7B5AE",
"L. c #6B6C65",
"P. c #5C5D5A",
"I. c #34322E",
"U. c #67695E",
"Y. c #555E59",
"T. c #4D534D",
"R. c #2F302A",
"E. c #3C3C38",
"W. c #AFB8B9",
"Q. c #B4B5B2",
"!. c #797572",
"~. c #424241",
"^. c #3D403D",
"/. c #44413E",
"(. c #908B86",
"). c #53514E",
"_. c #544D4C",
"`. c #4C4B45",
"'. c #3B3935",
"]. c #8B8A86",
"[. c #5F4A49",
"{. c #8C8582",
"}. c #D9CFCC",
"|. c #A69C98",
" X c #453C3A",
".X c #DAD9D4",
"XX c #D9CFD0",
"oX c #5D5653",
"OX c #1B0E10",
"+X c #786F6B",
"@X c #C2BBB5",
"#X c #261F26",
"$X c #868884",
"%X c #CCC6C3",
"&X c #918D8A",
"*X c #929290",
"=X c #9C9D9A",
"-X c #DDD3D1",
";X c #615A55",
/* pixels */
"    . . . . X   o . . . . X O O o O + . . . . . @ . O . # # # # # # # # . $   . @   . . . + O o O . X . . . O .     . . . . . . ",
"% & * * * = - ; : > , * & < - 1 2 3 4 5 = 6 & 5 % 5 % 2 # # # # # # # # 2 % 5 1 5 & & 5 , 4 4 2 7 5 < 8 * * 7 4 9 - 0 5 * q w - ",
"e r t 9 & 8 < X - < 9 t r y 9 - u 0 & & 9 i p a s 9 5 d # # # # # # # # u - d 8 d i t s & < 0 $ = d y r r 9 f = X 5 8 8 9 t r e ",
"g h j a 6 8 i k 1 < p l j 9 8 0 . < z z 4 x c v 9 - 5 $ # # # # # # # # 2 5 - d a j x 4 & * 5 X 0 & 9 j l i * t b t 8 6 a n m r ",
"M N B V 8 8 C X > * a Z A V 8 - v 1 < & d N A @ a < S v # # # # # # # # O 5 5 $ @ A D F & * 7 . = 6 V A Z a & t O * q 6 G B H 9 ",
"s J V & - = 1 d - < S G K s 5 5 v % & 5 6 V L z 5 5 0 6 # # # # # # # # 6 % * 5 & P V & 5 & 7 v 5 - & K G < 5 < F % - 5 & V J s ",
"& d I d d d y a < 6 & U Y 9 d s   5 & T 9 9 T 9 T 9 9 . # # # # # # # # . 6 6 d 9 T 6 d d & 5   & 9 9 a U 6 6 5 I d 9 d d T d & ",
"K R R @ E W Q ! G E K E U R R U ~ v E R W ! K W K K U K # # # # # # # # ~ U W G W G ! E @ R U G E R R U U K E G ~ E W W @ ~ K V ",
"^ / / ( ( m ) m _ h ` ' ' ] h h ' ' ` [ ( h { } } | ^  .# # # # # # # #  .^ | } } { h ( ] ` ' ' ..h ] h ..m ` _ ` / ` / X./ / ^ ",
"o.O.+.@.#.$.%.+.%.+.&.*.$.&.+.=.-.$.;.:.>.$.*.,.,.<.1.2.# # # # # # # # 2.<.,.,.,.3.3.3.:.@.>.O.+.4.*.3.>.&.+.4.+.4.@.5.$.+.-.6.",
">.>.*.5.$.H N Z 7.-.Z &.8.$.8.9.;.0.9.q.:.;.;.&.,.<.<.w.# # # # # # # # w.<.,.,.+.:.e.;.0.r.0.;.9.$.8.$.7.$.+.7.Z ;.;.H 5.&.*.>.",
"t.t.~ Y U Y a y Y R 2.K Y K K E U T   U K R R Q W J ~ J # # # # # # # # ~ ~ y.u.Q u.W u.Y U i.U U K p.p.~ e W U $ 2 U U i.~ Q a.",
"T 9 ~   & F 2 q v G 8 z w ; y v * 8 F d 8 a G 9 9 U d @ # # # # # # # # E a   d s G a 9 d d 8 C v y ; w z s G v * 2 F z U K 9 T ",
"& 5 K   0 s.s.d.b + 0 : 0 q * b f.= g.* t y + z 8 6 - o # # # # # # # # @ - 9 & < K y t < g.= h.F C q 0 j.0 + b k.s.s.t @ G < & ",
"8 < + a w g.l.l.b @ g.g.> q q u z.l.s.l.0 X + 5 b 6 < . # # # # # # # # . * 6 b 5 + X 0 = s.l.z.O x.q > c.l.o ; l.g.< w a + C 8 ",
"8 C G X < 0 v.l.8 + > k.v.C c.b b.s.l.l.0 y o < 8 8 d $ # # # # # # # # O d 8 8 < . O > l.g.s.b.b c.x.v.n.v.+ 8 l.> l.< X + C 8 ",
"q < G   5 f x.s.F + m.k.s.x.x.b k.= s.s.= u o & F d 9   # # # # # # # # E 6 F d * + b l.> s.l.n.b x.x.m.k.l.+ d s.c.x.g.U G < q ",
"8 C G a * f c.s.9 G = k.> * x.b M.f f f 0 u o q F 6 &   # # # # # # # # U & 6 d * o u 0 * f f : k q q > k.m.K d m.c.x.C Y K w q ",
"w w u.a = g.v.s.; X l.M.> * C O M.q * x.l.O + w y 9 z E # # # # # # # # E & s d & N.O l.* x.x.M.k C C > n.l.  9 > v.c.= i.u.z w ",
"; w G Y = f s.= a W C n.l.* c.y B.q C l.1 X + C d 8 z U # # # # # # # #   S & 9 * + X 0 l.C C M.k C C l.n.c.E a l.v.C g.a G z 8 ",
"; < G a > = d.d.9 . l.V.g.x.x.b : * x.l.> k o < ; 8 w X # # # # # # # #   < 8 8 < o k > l.x.q n.y q x.c.n.l.. d > d.m.s.v K C 8 ",
"q C G   s.c.m.s.k o f k.> C q k n.C x.* s.O o * 8 6 & @ # # # # # # # # @ 8 8 F < + O 0 * x.c.j.u q c.s.n.c.o d v.m.c.l.X G < 8 ",
"w w + k t 1 > > d . 0 n.> * * y M.g.5 q t ; @ g.8 w 8   # # # # # # # # X w 8 8 5 . k 0 q = 5 : u * C s.k.l.X 9 > v.s.1 a K < & ",
"w w u.a 0 t 0 0 a @ 0 t - 8 g.d C.0 t - - a @ z s & s U # # # # # # # # U 9 s s z + d - - i 5 B.; - & = t 0 K d 1 0 0 0 d ~ w.z ",
"Z._ { A.A.S.D.S.) m l F.l m S.l ..l S.A.) ../ G.n H.q.,.# # # # # # # # ,.0.H.} G.( A.J.A.S...l l F.F...F.l m ) A.K.F.J.A._ _ G.",
"%.4.%.e.;.9.-.-.-.-.-.8.L.7.-.-.P.8.;.0.8.$.$.,.,.,.<.I.# # # # # # # # I.<.,.,.B 3.L.#.0.;.8.-.4.-.7.L.8.-. .-.U.-.#.H ;.Y.=.Y.",
"3.3.&.9.9.>.;.;.7.-.8.+.H 8.8.8.5.9.r.r.:.3.;.&.T.,.<.R.# # # # # # # # R.T.,.T.U.e.L.#.5.#.5.9.;.8.>.;.-.8.7.7.H H L.9.5.&.3.*.",
"u.a.u.Y U U i.i.U   i.Q Y ! Q a.i.Q E.W.q.+.Q.w.t.~ p.J # # # # # # # # ! a.! a.w.Q.U.#.Q.E.Q i.Q Q ~ Y Q Y U U T i.  Q Y p.t.p.",
"Q W E @ v   U E   N.E R W E U i.U 1.M !.E.~.Z ~.1.U U W # # # # # # # # W U U A ^.8./.E.9.M 1.E i.U U W K   @   @ E U X E E R E ",
"- s 5 < & % % v z.3 5 & s - - W (.).I.+._.`.).'.7._.U s # # # # # # # # s U _.U.E.).`.T.7.I.<.].E '.- s z < 3 [.I - - q 5 , I.E.",
"s C.1 y * 6 t v 1 q 9 i p Y z D.>.M W Q p.Q Q Q s {.`.T # # # # # # # # I C.{.I.Q a.Q W Q K R.L.D.z Y j.i F q 1 v t 8 q y % C.s ",
"/.}.|.F F 6  Xy 7 c.4 }.j a I..XS W W u.u.R ~ U W - {.T # # # # # # # # T {.'.W U ! R u.u.W p.I..Xz a j }.4 * > a 0 ; 8 F |.XXi ",
"T !.oXOXd C * 2 = & d +X1.! z @X1.a a $ . 8 F 8 @ B .Xa # # # # # # # # a .XB   8 d 8 X $ $ v 1.@Xz ! P.Z d 8 1 I z < b G A ;.d ",
"s R OXS g.= 1 I 5 & S V K M - ) g e 5 F 6 6 * & a ).K.i.# # # # # # # # T K.).a * * 8 d F % 9 p X.- M K G & & - T % - < & J R s ",
"6 #X#XT d ; 9 v & 5 d T a s 9 {.-.s B.t d = 7 = s  .].T # # # # # # # # T {. .& = t 5 9 3 f.&  .{.9 M U T d 5 & I 9 y ; 9 i.#Xd ",
"R t.y.R V   R @ R ! R K W ~ K ).].r 9 < v & * d C.].o.L # # # # # # # # L `.{.C.s & s v & & i (._.K ! W K K ! K E K   G ~ ~ t.K ",
"^ W._ ] @Xl K.` _ ' ` ........Q `.K.^.e &.+.6 % c o.Q ,.# # # # # # # # ,.U T.c  Xs +.&.9 /.K.`.Q S.h ....m ../ ` Q.l J.] _ W.$X",
"6.=.=.@.9.Z 7.%.+.+.+.;.*.7.P.+.a.`.H.T..X.X_.H.<.u.<.R.# # # # # # # # M <.p.).| _..X.Xo.H.`.p.+.-.&.L.8.-.+.=.4.&.L.9.3.O.=.6.",
"@.@.=.#.H H 8.:.%.4.8.-.9.L.;.8.8.a.'.R.0.].M '.W P.<.R.# # # # # # # # w.<.P.u.'.I.].$XR.'.a.8.Z !.L.9.-.H %.4.:.H H H 5.=.@.@.",
"u.p.u.a.  a.a U Y a.Y U U K K Y Y a G Y -.-.W Q Q L ~ K # # # # # # # # R J J K Q W -.%.Y u.a Y Y K @ W W Y a.Y Q i.E U a.p.p.u.",
"I d ~ E 8 8 ; 8 a G 6 & w d d X < 9 9 a   G G s   a d R # # # # # # # # K 9 v U 9 J G   a 9 9 z X d d & 8 9 G v 8 8 8 8 U ! s Y ",
"6 5 W v = m.> > 6   g.j.0 x.* b M.g.- g.g.y . z 8 & , . # # # # # # # # X & & & < . ; g.g.0 < : b C C > n.g.  F > s.l.0   @ C 6 ",
"6 * @ v l.x.c.l.F . x.s.s.C C b z.m.0 l.l.k + w 8 8 q . # # # # # # # #   8 & F C + y l.c.r 0 V.b C x.> m.C . F l.f c.= v + * 8 ",
"q , OXv l.m.v.> F @ g.n.> x.C b z.l.> < r k + < 8 8 & v # # # # # # # # v & 8 8 < + y 1 c.0 l.b.y C x.> k.l.. F d.v.l.l.v @ C 6 ",
"* 5 K   C C c.l.; @ g.: l.C C k z.c.0 l.g.y G s y y 9 X # # # # # # # #   9 y y w G $ g.l.- g.B.k C C l.n.c.@ d m.c.c.C v K < w ",
"& z R v - q c.c.9   0 n.0 C q u V.x.C < 0 u G w 9 9 9 E # # # # # # # #   9 9 9 z + $ s.< C x.M.y C C l.n.l.X 9 c.x.C < v ~ C q ",
"q < @ T < c.v.s.9 @ g.M.0 c.q u V.x.x.g.s.O G & s 8 & v # # # # # # # #   & 6 8 w V O s.< C c.M.b q C s.: l.@ d s.v.c.< d K < 8 ",
"& * OXv l.l.c.l.d @ < n.l.C q u V.f * g.= u + w 8 8 8   # # # # # # # # v s 8 9 w o u m.l.< x.n.k q c.l.n.c.+ 9 s.m.g.= a V C 8 ",
"8 5 N.v 0 c.k.s.b o > n.0 q c.O M.* * = = u X w ; < &   # # # # # # # #   w < 9 < o y g.g.C q f.k C q m.> > o ; > k.f 1 v G < 8 ",
"6 5 V X i C = d.b + C > > x.q b n.g.q f 3 X N.- ; d s . # # # # # # # # o 9 ; y < G X 3 < q g.k.b x.C > n.x.+ k > s.* 3 X N.< 8 ",
"& = + X g.l.k.> y X = f.> * c.b h.f g.* 0 y + < 6 & 5 O # # # # # # # # X - & s < o y 0 q < f h.u g.q > n.l.X y > k.1 0 X + = & ",
", & ~ 9 i g.> C 8 + g.3 - 8 < ; f.7 3 % 5 9 W s S d F @ # # # # # # # # . d 9 z z Q 9 5 0 7 7 f.F 5 8 5 j.< + 8 < 3 = t 9 G & < ",
"G.X.{ [ J.A.@XF.D.....m ..h F...l l %X%X( h ( Z.Z.&X].1.# # # # # # # # oX| *X=XZ.{ h ( [ %X-X}.......h m F...) S.@X` ) [ ) X.G.",
",.=.4.e.0.8.%.U.%.%.&.$.$.&.%.-.P.8.H #.3.e.3.,.,.T.%.e # # # # # # # # M ,.T.,.Y.3.@.3.#.:.Z  .-.4.&.$.$.&.%.%.U.%.$.#.e.4.-.,.",
"&.>.7.:.$.H 8.8.&.U.$.-.8.L.H ;.9.#.#.9.$.H H -.,.).,.w.# # # # # # # # w.,.<.<.+.;.;.8.r.#.5.5.H ;.L.H U.L.U.U.H 8.8.$.:.&.>.&.",
"Q Q W i.Y Y a Y K U i.Q Y K u.Y Q Y U U K Q R U a.! ! L # # # # # # # # J J ~ U U K W W U U i.Q Y K u.Q Q Y Q Q a Y I U Y p.Q Q ",
"  E   E o + . @ @ X E E     v a K v K   E .   @ .   v   # # # # # # # # E v @   @ E .   U K a G a X .   E @   @   .   E E   E E ",
"% s S * < 0 0 ; j.r < z & < 5 i y i 4 5 5 6 * - % , = 2 # # # # # # # # 2 - < 0 * * & 5 z j.j.a t - < w w C 3 4 F 1 1 5 z z & % ",
"d i i 6 z 9 < X = 5 s t t a 9 - $ 1 * & 6 j. Xa & 6 , d # # # # # # # # u 5 6 9 a r j.9 8 C g.y < ; ; r r 9 < - v 5 6 w 6 i i e ",
"C.S.j 2 8 w r y 1 < p XXc 9 s 1 v 5 * & p F.j a d - , $ # # # # # # # # u C - ; a j F.j.* * - . 0 s e j }.r < t y 1 & 6 y j S.4 ",
"s N oXOX6 & C v t q T +XA OX& % $ 1 , , d !.A K T 5 , u # # # # # # # # u * * T G ;XN ; * * 7 O 0 6 V oX+Xy & 1 v S & 6 N.oX!.9 ",
"& ! OX6 - -  Xd 5 5 5 OXW s % 5 I 7 & 5 s V J & % S % 6 # # # # # # # # 6 % S - s P P s % & 1 2 5 - s W G < , 5 9  X% 5 & V J & ",
"I.2.#Xd a 9 T v = 6 s U I d d & E S & T d & T d 9 d d . # # # # # # # # U d s d T d s 9 d s ,   s T 6 v U & 6 = I T d d d i.2.I.",
"! K K OX    E OXOXE OXE   OXR W OXv OXK R OXV E OXE R K # # # # # # # # R E E OXE OXOXK K R I ~ E R OXE E OX. V V E E E R OXK J "
};
