/* XPM */
static char *ecd3c641de37455bca7987cb9c5106b0gcSIKq2pT9t4FgR1[] = {
/* columns rows colors chars-per-pixel */
"64 64 130 2 ",
"   c #2A1514",
".  c #231513",
"X  c #321C17",
"o  c black",
"O  c #321D1B",
"+  c #241A15",
"@  c #3C2D2A",
"#  c #443432",
"$  c #463638",
"%  c #301F25",
"&  c #4B3738",
"*  c #4C4442",
"=  c #2C221D",
"-  c #352B2A",
";  c #342924",
":  c #332523",
">  c #391F1A",
",  c #453835",
"<  c #3B2A25",
"1  c #4B413C",
"2  c #AEACA8",
"3  c #2B1C1B",
"4  c #ABA29C",
"5  c #625654",
"6  c #44322D",
"7  c #3E3332",
"8  c #0D0A06",
"9  c #3C312C",
"0  c #4C3A34",
"q  c #392729",
"w  c #422E2A",
"e  c #160A06",
"r  c #2D2422",
"t  c #1C1412",
"y  c #1C1A15",
"u  c #231C1A",
"i  c #151412",
"p  c #1C120D",
"a  c #B7BDB6",
"s  c #9CA09C",
"d  c #8D8B89",
"f  c #868789",
"g  c #625E5A",
"h  c #676D69",
"j  c #555A55",
"k  c #545552",
"l  c #5B5A55",
"z  c #272926",
"x  c #67726B",
"c  c #747571",
"v  c #656A64",
"b  c #353532",
"n  c #636561",
"m  c #757973",
"M  c #1A1418",
"N  c #1D1C19",
"B  c #140E0B",
"V  c #120E11",
"C  c #171813",
"Z  c #221719",
"A  c #23130D",
"S  c #28150F",
"D  c #39231C",
"F  c #392523",
"G  c #442D25",
"H  c #3D3327",
"J  c #33221D",
"K  c #210F0B",
"L  c #443026",
"P  c #36281F",
"I  c #2B1A15",
"U  c #4B342D",
"Y  c #BCBDBA",
"T  c #9A9B95",
"R  c #A4A29B",
"E  c #93948E",
"W  c #838782",
"Q  c #82837E",
"!  c #BFC1BD",
"~  c #6D726C",
"^  c #34322E",
"/  c #5A554F",
"(  c #4D534D",
")  c #2F302A",
"_  c #67695E",
"`  c #6E7870",
"'  c #B4B5B2",
"]  c #1D1C21",
"[  c #171C19",
"{  c #14110D",
"}  c #1F211C",
"|  c #756E6B",
" . c #424241",
".. c #3D403D",
"X. c #72736D",
"o. c #53514E",
"O. c #3B3935",
"+. c #696562",
"@. c #544D4C",
"#. c #3C3C38",
"$. c #8C8582",
"%. c #4C4B45",
"&. c #2B1E21",
"*. c #514946",
"=. c #DAD9D4",
"-. c #B7B5AE",
";. c #252421",
":. c #50373A",
">. c #4A3632",
",. c #8B8A86",
"<. c #4C3B39",
"1. c #4C4D4A",
"2. c #453C3A",
"3. c #2E2D2A",
"4. c #5C5D5A",
"5. c #442F30",
"6. c #1B0E0B",
"7. c #979E97",
"8. c #918D8A",
"9. c #5D5653",
"0. c #929290",
"q. c #9C9D9A",
"w. c #5B6157",
"e. c #2C2922",
"r. c #555E59",
"t. c #76786D",
"y. c #62635D",
"u. c #4A443B",
"i. c #615A55",
"p. c #1B0E10",
/* pixels */
"    .   X   o o o o o o o o o o o o o o o o o o o o o o o o o o o o o o o o o o o o o o o o o o o o o o o o o o o o   O +   . + ",
"@ # $ # $ % o o o o o o o o o o o o o o o o o o o o o o o o o o o o o o o o o o o o o o o o o o o o o o o o o o o o % $ # & # @ ",
"* = - ; # : o o o o o o o o o o o o o o o o o o o o o o o o o o o o o o o o o o o o o o o o o o o o o o o o o o o o > , : < : 1 ",
"2 3 ; , # O o o o o o o o o o o o o o o o o o o o o o o o o o o o o o o o o o o o o o o o o o o o o o o o o o o o o % # , : = 4 ",
"5 . = 6 7 3 o o o o o o o o o o o o o o o o o o o o o o o o o o o o o o o o o o o o o o o o o o o o o o o o o o o o X # # O . 5 ",
"8 9 # # 0 q o o o o o o o o o o o o o o o o o o o o o o o o o o o o o o o o o o o o o o o o o o o o o o o o o o o o q $ w # @ e ",
"r ; r ; ;   o o o o o o o o o o o o o o o o o o o o o o o o o o o o o o o o o o o o o o o o o o o o o o o o o o o o   q q : ; r ",
"t y t t u t o o o o o o o o o o o o o o o o o o o o o o o o o o o o o o o o o o o o o o o o o o o o o o o o o o o o i u y p y p ",
"a s s d f g o o o o o o o o o o o o o o o o o o o o o o o o o o o o o o o o o o o o o o o o o o o o o o o o o o o o g f d s s a ",
"h j j k l z o o o o o o o o o o o o o o o o o o o o o o o o o o o o o o o o o o o o o o o o o o o o o o o o o o o o z k j j j x ",
"c v j k k b o o o o o o o o o o o o o o o o o o o o o o o o o o o o o o o o o o o o o o o o o o o o o o o o o o o o b k j j n m ",
"M N y B i B o o o o o o o o o o o o o o o o o o o o o o o o o o o o o o o o o o o o o o o o o o o o o o o o o o o o i i V C N C ",
"p ; ; u : . o o o o o o o o o o o o o o o o o o o o o o o o o o o o o o o o o o o o o o o o o o o o o o o o o o o o Z = + : - p ",
"A 9 < q , S o o o o o o o o o o o o o o o o o o o o o o o o o o o o o o o o o o o o o o o o o o o o o o o o o o o o . , ; @ 6 t ",
"A # D q 6   o o o o o o o o o o o o o o o o o o o o o o o o o o o o o o o o o o o o o o o o o o o o o o o o o o o o   w q D # A ",
"S 6 < < : O o o o o o o o o o o o o o o o o o o o o o o o o o o o o o o o o o o o o o o o o o o o o o o o o o o o o X : < < 6   ",
"S @ F : ; + o o o o o o o o o o o o o o o o o o o o o o o o o o o o o o o o o o o o o o o o o o o o o o o o o o o o Z q F : w A ",
"S G F q @ + o o o o o o o o o o o o o o o o o o o o o o o o o o o o o o o o o o o o o o o o o o o o o o o o o o o o u @ q : w S ",
"A H J ; 9 Z o o o o o o o o o o o o o o o o o o o o o o o o o o o o o o o o o o o o o o o o o o o o o o o o o o o o Z @ - : @ K ",
"A L : < 9 u o o o o o o o o o o o o o o o o o o o o o o o o o o o o o o o o o o o o o o o o o o o o o o o o o o o o + 7 @ ; w A ",
"S 6 P < H I o o o o o o o o o o o o o o o o o o o o o o o o o o o o o o o o o o o o o o o o o o o o o o o o o o o o + 6 < < 6 S ",
"S w < q @ . o o o o o o o o o o o o o o o o o o o o o o o o o o o o o o o o o o o o o o o o o o o o o o o o o o o o . < < F 6 A ",
". U < H < + o o o o o o o o o o o o o o o o o o o o o o o o o o o o o o o o o o o o o o o o o o o o o o o o o o o o I H < < #   ",
". 9 - @ - u o o o o o o o o o o o o o o o o o o o o o o o o o o o o o o o o o o o o o o o o o o o o o o o o o o o o u ; - - 9 A ",
"Y T R E W j o o o o o o o o o o o o o o o o o o o o o o o o o o o o o o o o o o o o o o o o o o o o o o o o o o o o j Q E s T ! ",
"~ j j j k ^ o o o o o o o o o o o o o o o o o o o o o o o o o o o o o o o o o o o o o o o o o o o o o o o o o o o o ^ k j j / x ",
"c v ( j k ) o o o o o o o o o o o o o o o o o o o o o o o o o o o o o o o o o o o o o o o o o o o o o o o o o o o o ) ( j ( _ ` ",
"' b ] i [ B o o o o o o o o o o o o o o o o o o o o o o o o o o o o o o o o o o o o o o o o o o o o o o o o o o o o { } { } b ' ",
"|  .l u u y o o o o o o o o o o o o o o o o o o o o o o o o o o o o o o o o o o o o o o o o o o o o o o o o o o o o y u u 5 ..X.",
"o.O.+.@.u - o o o o o o o o o o o o o o o o o o o o o o o o o o o o o o o o o o o o o o o o o o o o o o o o o o o o - u @._ #.o.",
"N N - $.%.r o o o o o o o o o o o o o o o o o o o o o o o o o o o o o o o o o o o o o o o o o o o o o o o o o o o o &.*.$.^ N } ",
"i u y , $.r o o o o o o o o o o o o o o o o o o o o o o o o o o o o o o o o o o o o o o o o o o o o o o o o o o o o r $.O.y u { ",
"F < . / =.= o o o o o o o o o o o o o o o o o o o o o o o o o o o o o o o o o o o o o o o o o o o o o o o o o o o o = =./ + < : ",
"w @ = o.-.;.o o o o o o o o o o o o o o o o o o o o o o o o o o o o o o o o o o o o o o o o o o o o o o o o o o o o r -.o.= w w ",
":.>.- g ,.r o o o o o o o o o o o o o o o o o o o o o o o o o o o o o o o o o o o o o o o o o o o o o o o o o o o o r $.g @ >.<.",
"w : *.,.1.8 o o o o o o o o o o o o o o o o o o o o o o o o o o o o o o o o o o o o o o o o o o o o o o o o o o o o 8 %.$.*.- @ ",
"q $ 2 1.N j o o o o o o o o o o o o o o o o o o o o o o o o o o o o o o o o o o o o o o o o o o o o o o o o o o o o j u ( 2 2.- ",
"@.E k C k ) o o o o o o o o o o o o o o o o o o o o o o o o o o o o o o o o o o o o o o o o o o o o o o o o o o o o 3.k [ o.d @.",
"3.O.y 4.k ) o o o o o o o o o o o o o o o o o o o o o o o o o o o o o o o o o o o o o o o o o o o o o o o o o o o o b k 4.C O.^ ",
"y N N 8 i t o o o o o o o o o o o o o o o o o o o o o o o o o o o o o o o o o o o o o o o o o o o o o o o o o o o o M B B t N y ",
"p - + = : M o o o o o o o o o o o o o o o o o o o o o o o o o o o o o o o o o o o o o o o o o o o o o o o o o o o o t ; 3 u ; B ",
"  9 < @ 5.  o o o o o o o o o o o o o o o o o o o o o o o o o o o o o o o o o o o o o o o o o o o o o o o o o o o o I @ @ @ 6   ",
"A H < < G   o o o o o o o o o o o o o o o o o o o o o o o o o o o o o o o o o o o o o o o o o o o o o o o o o o o o + < @ F L A ",
"A 6 < < @ 3 o o o o o o o o o o o o o o o o o o o o o o o o o o o o o o o o o o o o o o o o o o o o o o o o o o o o 3 @ < < 6 A ",
"p - J J ; I o o o o o o o o o o o o o o o o o o o o o o o o o o o o o o o o o o o o o o o o o o o o o o o o o o o o + ; J J H p ",
"p H ; ; ; Z o o o o o o o o o o o o o o o o o o o o o o o o o o o o o o o o o o o o o o o o o o o o o o o o o o o o + ; ; ; 9 A ",
"p @ - < @ 3 o o o o o o o o o o o o o o o o o o o o o o o o o o o o o o o o o o o o o o o o o o o o o o o o o o o o + @ q < H 6.",
"A H < < < + o o o o o o o o o o o o o o o o o o o o o o o o o o o o o o o o o o o o o o o o o o o o o o o o o o o o 3 - < ; H S ",
"I H P 6 @ + o o o o o o o o o o o o o o o o o o o o o o o o o o o o o o o o o o o o o o o o o o o o o o o o o o o o + H 6 ; 6 S ",
"K , P : -   o o o o o o o o o o o o o o o o o o o o o o o o o o o o o o o o o o o o o o o o o o o o o o o o o o o o S ; P J 6 p ",
"A 6 q @ # X o o o o o o o o o o o o o o o o o o o o o o o o o o o o o o o o o o o o o o o o o o o o o o o o o o o o I , @ - 6 S ",
"y - 7 : F . o o o o o o o o o o o o o o o o o o o o o o o o o o o o o o o o o o o o o o o o o o o o o o o o o o o o   : ; 9 9 N ",
"! 7.7.8.,.l o o o o o o o o o o o o o o o o o o o o o o o o o o o o o o o o o o o o o o o o o o o o o o o o o o o o 9.d 0.q.7.a ",
"x j j ( w.e.o o o o o o o o o o o o o o o o o o o o o o o o o o o o o o o o o o o o o o o o o o o o o o o o o o o o 3.j ( j r.x ",
"t.y.j o.j b o o o o o o o o o o o o o o o o o o o o o o o o o o o o o o o o o o o o o o o o o o o o o o o o o o o o b j k k n c ",
"M u } { { 8 o o o o o o o o o o o o o o o o o o o o o o o o o o o o o o o o o o o o o o o o o o o o o o o o o o o o B B i u u t ",
"+ .   + 3 + o o o o o o o o o o o o o o o o o o o o o o o o o o o o o o o o o o o o o o o o o o o o o o o o o o o o Z 3 . + . Z ",
"w , $ 5.>.% o o o o o o o o o o o o o o o o o o o o o o o o o o o o o o o o o o o o o o o o o o o o o o o o o o o o % , 6 0 w w ",
"2.= @ q 5.: o o o o o o o o o o o o o o o o o o o o o o o o o o o o o o o o o o o o o o o o o o o o o o o o o o o o > # q ; = u.",
"4 = : , 5.O o o o o o o o o o o o o o o o o o o o o o o o o o o o o o o o o o o o o o o o o o o o o o o o o o o o o > L , P = 4 ",
"5 t r # 5.> o o o o o o o o o o o o o o o o o o o o o o o o o o o o o o o o o o o o o o o o o o o o o o o o o o o o > w w r p i.",
"B @ $ 7 $ q o o o o o o o o o o o o o o o o o o o o o o o o o o o o o o o o o o o o o o o o o o o o o o o o o o o o q $ 7 , - e ",
"r : ; : :   o o o o o o o o o o o o o o o o o o o o o o o o o o o o o o o o o o o o o o o o o o o o o o o o o o o o u : - : r : ",
"6.Z p.Z M t o o o o o o o o o o o o o o o o o o o o o o o o o o o o o o o o o o o o o o o o o o o o o o o o o o o o M Z Z p.Z p."
};
