/* XPM */
static char *_f6cbb9ed96242169e0173beb337dca5sZ7DU96XhY0c8aPv[] = {
/* columns rows colors chars-per-pixel */
"64 64 37 1 ",
"  c #2A1514",
". c black",
"X c #301F25",
"o c #332523",
"O c #391F1A",
"+ c #321D1B",
"@ c #2B1C1B",
"# c #321C17",
"$ c #392729",
"% c #1C1412",
"& c #151412",
"* c #625E5A",
"= c #272926",
"- c #353532",
"; c #140E0B",
": c #231513",
"> c #221719",
", c #28150F",
"< c #241A15",
"1 c #231C1A",
"2 c #2B1A15",
"3 c #555A55",
"4 c #34322E",
"5 c #2F302A",
"6 c #14110D",
"7 c #1C1A15",
"8 c #352B2A",
"9 c #2D2422",
"0 c #2B1E21",
"q c #2C221D",
"w c #252421",
"e c #0D0A06",
"r c #2E2D2A",
"t c #1A1418",
"y c #5B5A55",
"u c #5D5653",
"i c #2C2922",
/* pixels */
" .............................................................. ",
"X..............................................................X",
"o..............................................................O",
"+..............................................................X",
"@..............................................................#",
"$..............................................................$",
" .............................................................. ",
"%..............................................................&",
"*..............................................................*",
"=..............................................................=",
"-..............................................................-",
";..............................................................&",
":..............................................................>",
",..............................................................:",
" .............................................................. ",
"+..............................................................#",
"<..............................................................>",
"<..............................................................1",
">..............................................................>",
"1..............................................................<",
"2..............................................................<",
":..............................................................:",
"<..............................................................2",
"1..............................................................1",
"3..............................................................3",
"4..............................................................4",
"5..............................................................5",
";..............................................................6",
"7..............................................................7",
"8..............................................................8",
"9..............................................................0",
"9..............................................................9",
"q..............................................................q",
"w..............................................................9",
"9..............................................................9",
"e..............................................................e",
"3..............................................................3",
"5..............................................................r",
"5..............................................................-",
"%..............................................................t",
"t..............................................................%",
" ..............................................................2",
" ..............................................................<",
"@..............................................................@",
"2..............................................................<",
">..............................................................<",
"@..............................................................<",
"<..............................................................@",
"<..............................................................<",
" ..............................................................,",
"#..............................................................2",
":.............................................................. ",
"y..............................................................u",
"i..............................................................r",
"-..............................................................-",
"e..............................................................;",
"<..............................................................>",
"X..............................................................X",
"o..............................................................O",
"+..............................................................O",
"O..............................................................O",
"$..............................................................$",
" ..............................................................1",
"%..............................................................t"
};
