/* XPM */
static char *_9a8a68d6abc4ca4885ba803abf3c45fkx7TTdHJzo4tZjkE[] = {
/* columns rows colors chars-per-pixel */
"64 64 200 2 ",
"   c #23130D",
".  c #321C17",
"X  c #2A1514",
"o  c #241A15",
"O  c #2B1A15",
"+  c #28150F",
"@  c #231513",
"#  c black",
"$  c #321D1B",
"%  c #54423D",
"&  c #50373A",
"*  c #443432",
"=  c #463638",
"-  c #3C2D2A",
";  c #422E2A",
":  c #4A3632",
">  c #453835",
",  c #36281F",
"<  c #5A453A",
"1  c #533A34",
"2  c #442F30",
"3  c #44322D",
"4  c #4B3738",
"5  c #301F25",
"6  c #523C3B",
"7  c #544341",
"8  c #392729",
"9  c #3B2A25",
"0  c #342924",
"q  c #4C3A34",
"w  c #442D25",
"e  c #3D3327",
"r  c #4B342D",
"t  c #4C3B39",
"y  c #2C2922",
"u  c #4A443B",
"i  c #33221D",
"p  c #391F1A",
"a  c #4B413C",
"s  c #4C4442",
"d  c #2C221D",
"f  c #352B2A",
"g  c #332523",
"h  c #4A2E2A",
"j  c #474841",
"k  c #CED1CC",
"l  c #ABA29C",
"z  c #352116",
"x  c #DAD2CD",
"c  c #3C312C",
"v  c #D5C7C4",
"b  c #AEACA8",
"n  c #2B1C1B",
"m  c #39231C",
"M  c #A4A29B",
"N  c #CDCCC6",
"B  c #2E2D2A",
"V  c #7A736F",
"C  c #5A554F",
"Z  c #1B0E0B",
"A  c #443026",
"S  c #756E6B",
"D  c #625654",
"F  c #3E3332",
"G  c #81726F",
"H  c #392523",
"J  c #1C120D",
"K  c #76786D",
"L  c #140E0B",
"P  c #1C1412",
"I  c #0D0A06",
"U  c #160A06",
"Y  c #2B1E21",
"T  c #231C1A",
"R  c #24221C",
"E  c #2D2422",
"W  c #1C1A15",
"Q  c #221719",
"!  c #1A1418",
"~  c #1D1C19",
"^  c #14110D",
"/  c #151412",
"(  c #9A9B95",
")  c #9C9D9A",
"_  c #868789",
"`  c #BCBDBA",
"'  c #BFC1BD",
"]  c #BCBBB5",
"[  c #B7BCB9",
"{  c #CECECB",
"}  c #D3D2D0",
"|  c #C7CCC8",
" . c #C4C5C2",
".. c #B7BDB6",
"X. c #9CA09C",
"o. c #8D8B89",
"O. c #625E5A",
"+. c #D4D2CC",
"@. c #C1BFBA",
"#. c #8B8A86",
"$. c #545552",
"%. c #464C4B",
"&. c #4C4D4A",
"*. c #5C6463",
"=. c #636561",
"-. c #6C7471",
";. c #7D827B",
":. c #6D726C",
">. c #5B6157",
",. c #656A64",
"<. c #676D69",
"1. c #5D6864",
"2. c #62635D",
"3. c #747571",
"4. c #757973",
"5. c #6B6E6A",
"6. c #555A55",
"7. c #5B5A55",
"8. c #272926",
"9. c #67726B",
"0. c #5D625C",
"q. c #777D79",
"w. c #53514E",
"e. c #696562",
"r. c #72736D",
"t. c #7A7B75",
"y. c #82837E",
"u. c #838782",
"i. c #353532",
"p. c #6E7870",
"a. c #7A7D7A",
"s. c #1D1C21",
"d. c #120E11",
"f. c #171813",
"g. c #252421",
"h. c #171C19",
"j. c #1F211C",
"k. c #523632",
"l. c #5A3D35",
"z. c #5D4543",
"x. c #614541",
"c. c #593D38",
"v. c #4D392E",
"b. c #634942",
"n. c #492D25",
"m. c #4C3227",
"M. c #54392E",
"N. c #694E45",
"B. c #5C4237",
"V. c #51352D",
"C. c #5B433C",
"Z. c #210F0B",
"A. c #5B4A46",
"S. c #61433C",
"D. c #514946",
"F. c #A19D9A",
"G. c #908B86",
"H. c #979E97",
"J. c #C3C2BC",
"K. c #D2CEC9",
"L. c #BAB5B1",
"P. c #D3CDC5",
"I. c #93948E",
"U. c #C3C0B7",
"Y. c #B7B5AE",
"T. c #4D534D",
"R. c #6B6C65",
"E. c #5C5D5A",
"W. c #34322E",
"Q. c #67695E",
"!. c #555E59",
"~. c #2F302A",
"^. c #3C3C38",
"/. c #AFB8B9",
"(. c #B4B5B2",
"). c #797572",
"_. c #424241",
"`. c #3D403D",
"'. c #44413E",
"]. c #544D4C",
"[. c #4C4B45",
"{. c #3B3935",
"}. c #5F4A49",
"|. c #8C8582",
" X c #D9CFCC",
".X c #A69C98",
"XX c #453C3A",
"oX c #DAD9D4",
"OX c #D9CFD0",
"+X c #5D5653",
"@X c #1B0E10",
"#X c #786F6B",
"$X c #C2BBB5",
"%X c #261F26",
"&X c #868884",
"*X c #CCC6C3",
"=X c #918D8A",
"-X c #929290",
";X c #DDD3D1",
":X c #615A55",
/* pixels */
"  . X o o X X X X O o + X X X X O . . + .   X X X X X @ X . X # # X $ o X @ o X X X   . + . X O X X X . X o o X X X X X X   $   ",
"% & * = - ; ; ; : > , < 1 2 ; - 3 > 4 5 6 7 * : 8 - * = * = 5 # # 5 = * 4 * - - * 2 7 7 5 & * 3 9 ; ; & 7 0 > q * ; w e > r t % ",
"q ; - y u t 0 - 9 3 O > 3 0 t u i 0 > p q - - 0 a s d f 0 * g # # p > g 9 g a t f - 3 q $ : g i u u 0 h : O * 9 9 0 t u y 9 ; q ",
"1 9 9 j k l d 8 9 a z 4 3 s x l 0 9 q X 3 c c 7 v b n 0 > * $ # # 5 * > g d l v 7 - ; * O q - 0 l x a ; t m t 9 8 d M N u e 9 4 ",
": 2 3 B V C Z 9 9 A O 1 ; d S D Z 9 > n 4 3 - g V D @ d 3 F n # # . * * $ @ D G H - ; & X : 8 Z D S d - t . ; w 8 J C K 0 c * : ",
"4 ; * f L Z - > : 4 g > 3 F J P f * * n = - * 8 Z I c * * q 8 # # 8 = ; * - U Z - * - & n * > - P J 3 * 3 H = > * - Z L f * ; & ",
"= 8 n - g Y g g g i d 3 8 - T R 0 g f o * - E 0 0 E 0 E 0 0 X # # X 8 8 g 0 E 8 g g - * o - 0 0 d T 8 8 * Y g 0 g g E g - 5 8 * ",
"W Q Q P ! ! @ Q W ~ ^ J Q P Q T ! ! T / n Q ! W ^ P W P P T P # # / T W J W J ^ Q @ ! T J Q ! ! T T P Q J / Q W W @ / P Z Q o ! ",
"( ) _ _ ` ` ' ' N ] N [ k { } } | k k } } {  .' k ..X.X.o._ O.# # O._ o.X.X...k ' | { } } +.k | k +.N { [ { ` { ` @.` ` _ #.) ) ",
"$.$.%.&.*.=.-.;.:.>.=.>.=.,.<.:.,.=.1.2.:.3.4.5.:.<.6.6.$.7.8.# # 8.$.6.6.6.9.9.9.4.-.5.*.=.0.<.9.5.,.=.0.=.0.-.q.:.=.2.%.%.$.$.",
"w.=.*.5.5.<.q.:.K V S e.2.S ,.r.:.r.t.3.y.t.u.4.3.3.,.6.$.$.i.# # i.$.6.6.=.4.p.3.y.a.y.3.t.:.r.:.e.:.=.e.S 3.3.K q.,.<.5.0.2.$.",
"o Q / s.s./ R T R d i R ! 8.P R P P Q T E o T P ! ! ~ W L / L # # / / d.f.~ f.W f.R T g.T T P h.h./ y W T $ 5 T T g./ ~ j./ ~ Q ",
"g Y T E 0 / o - H 5 w n J 9 c e , i n ; 9 H g 9 d J 0 0 T g @ # # Q d o g f J d 0 g g 9 A n i , e c f J n ; 5 H c T P 0 E Q E 8 ",
"= f - - * P o q k.k.l.m   q < q w ; m z.: r ; t i   c 9 8 > + # # @ > 0 - 3 P i t 3 r : x.H A w q % q   m c.k.k.t @ J 3 - c f * ",
"3 0 0 9 3   d e r v.v.m @ r r 1 w w p b.v.k.v.q O   * m 8 3 X # # X ; 8 m *   O q : k.v.b.. n.w 1 m.v.+ , v.r 3 e d   A 9 0 g 3 ",
"q 9 0 9 A J O 3 q M.v.9   1 c.M.A m.m N.k.v.v.q i + 3 9 9 g $ # # . g 9 9 3 X . 1 v.r k.N.m m.n.M.B.M.  9 v.1 v.3 O   A 9 0 9 > ",
"c g H w 3 J o * h n.k.H   V.c.k.n.n.m c.: k.k.: p + - H g 0 o # # Q 8 H g ;   m v.1 k.v.B.m n.n.V.c.v.  g k.m.n.r T J 3 w , H 3 ",
"3 H 8 9 A J d ; h m.k.0 J : c.1 ; n.m C.h h h q p + w H 8 - o # # T - 8 g ; + p q ; h h < z w w 1 c.V.P g V.m.n.A R P e w H g 3 ",
"3 0 H e e f.d : r M.k., O v.C.1 ; A . C.w ; n.v..   e i 0 c Q # # Q - f g - Z.. v.; n.n.C.z A A 1 B.v.o 0 1 M.m.: g.f.c e H H * ",
"c 9 g , e J R : h k.: d W A B.v.; m.i A.w A v.4 O   A g 9 c T # # o F - 0 ;   O q v.A A C.z A A v.B.m.Q d v.M.A r d J c 9 m g * ",
"; 9 m , 3 J d 1 : l.l.0 X v.S.r n.n.m < ; n.v.1 z + 3 , 9 e O # # o 3 9 9 3 + z 1 v.n.w B.i w n.m.B.v.X g 1 l.V.k.n P A 9 m H 2 ",
"2 w m w A J o k.m.V.k.z + h c.1 A w z B.A n.; k.. + ; 9 8 - @ # # @ 9 9 H 3   . q ; n.m.% p w m.k.B.m.+ g M.V.m.v.O J 3 9 m 9 * ",
"3 8 8 e e   z t 4 1 1 g X q B.1 ; ; i C.r * w t , @ r 9 e 9 o # # O e 9 9 * X z q w : * < p ; A k.c.v.O 0 1 M.k.4 d P 3 - m 9 = ",
"* 9 f e e f.d q t q q d @ q t > 9 r g D.q t > > d @ c f - f T # # T 0 f f c   g > > a * A., > - : t q P g 4 q q q g / i.c 9 8 * ",
"( F.G.H.[ ..J.J.K.L.K.] N x P.x N K.x +.x K.J.] +.` ( M I.u.6.# # 6.y.I.X.( ' J.U.J.K.+.x x P.P.+.P.x N ] J.Y.P.U.J.[ [ ( G.F.( ",
"T.w.j >.0.>.p.3.t.2.2.2.2.2.r.R.e.2.2.E.r.3.y.r.:.:.6.6.6.$.W.# # W.$.6.6.C 9.R.;.y.3.r.2.0.2.e.R.r.2.O.2.Q.2.;.K 3.!.1.!.j w.w.",
"6.2.2.9.9.,.t.t.5.3.3.e.2.r.=.K r.r.r.q.t.a.a.4.9.3.,.T.6.$.~.# # ~.T.6.T.Q.p.R.;.q.;.q.t.3.r.5.3.2.r.e.e.K K R.t.q.,.9.<.>.Q.6.",
"/ J T f.j.f.R T T g.g.T o g.~ R ^ ~ j.g.~ ^./.u.=.(.i.s./ h.L # # ^ j.^ j.i.(.Q.;.(.^.~ g.~ ~ / R ~ R T T E g.o ~ R h.s.h.o J ! ",
"E   @ ~ W Q @ n o T Q o Z.Q ! W Q T g.T 7.B ).^._.S _.7.T T W # # W T T D `.r.'.^.t.B 7.Q g.T T W P o @ o @ Q T O Q Q ! Q W   d ",
"7 4 > > f * 3 - = = n b.6 * - f > > W G.w.W.=.].[.w.{.e.].T f # # f T ].Q.^.w.[.T.e.W.$.#.Q {.> f c 3 6 }.Y > > w * 2 W.^.3 1 7 ",
": w 9 f D.4 i ; 8 t n 4 w 0 a s R c L.5.B W ~ h.~ ~ ~ f |.[.E # # Y D.|.W.~ j.~ W ~ P ~.R.L.c R % a H w 4 n t 9 w i = D.f 9 w = ",
"& A A '. X.XH H 8 XXi & m.7  Xl d W.oXF W W f.f.! / T W > |.E # # E |.{.W T ^ ! f.f.W h.W.oXc d l  X7 ; 1 d q , 9 H .XOXa A ; 6 ",
"= ; w E ).+X@Xg A ; 5 : - g #X7.^ c $X7.d d $ X 9 H 9 @ C oXd # # d oXC o 9 g 9 O $ $ n 7.$Xc ^ E.S g 9 4 Y c 3 m J D 3.g ; h = ",
"& ; h f ! @XF r : 4 Y * - F Z P B > ] j y * H 8 8 ; - d w.Y.g.# # E Y.w.d ; ; 9 g H = 0 s @.> B P J - - > E = > 3 - L ! f 3 ; 4 ",
"= ; 5 8 %X%XE g , 0 n - * g E d f 0 |.2.f A.t g : & : f O.#.E # # E |.O.- : t * 0 6 z.- O.|.0 B T E g * - Y 0 i , 0 g.%Xg 8 w > ",
"Y @X@X! s.d.! Z o ! @ ! ^ ! P W / P w.#.u 0 3 n - ; g D.#.&.I # # I [.|.D.f - f n - - a G.].P ^ W P P ^ P Q P o J / / s.P Z Z E ",
"F..X|._ /.[ | $Xx Y.{ [ } { +.+.+.+.~ [.Y.`.y ,.=.8 = b &.~ 6.# # 6.T T.b XXf =.,.0 '.Y.[.~ K.k +.+.N +.` { (.x U.| [ /.&XG.F.) ",
"&.$.].%.1.1.-.t.S e.>.=.=.=.3.<.e.E.=.j.[.I.T.oXoX].I.$.f.$.~.# # B $.h.w.o.].oXoX&.I.[.h.=.2.,.R.r.2.=.1.0.,.R.t.9.*.1.%.D.C &.",
"7.O.7.-.-.1.;.K K r.4.>.0.r.2.t.R.3.r.r.j.{.~.y.#.B {.W E.$.~.# # i.$.E.f.{.W.#.&X~.{.j.r.S ).R.t.2.K >.0.4.K K K q.1.-.-.7.O.E.",
"W W W f.h.f.j.o j.d T R j.R T T P P R R d J R 2.2.W ~ ~ I / P # # ! L L P ~ W 2.>.R f.d R R P @ W W R j.R ~ g.Q T j.h.h.f.J W ~ ",
"8 $ n Y g / Q 9 9 , 9 d J 8 - e g g O 3 0 0 d o J J f o d g ! # # P 0 n T 0 L J o d 0 0 c O g g - 9 0 J n 9 9 9 9 T ^ f R n n 0 ",
"; H ; 8 * W n : V.1 1 8 o r % q n.; m C.r > r r i X c 9 - 2 X # # O - - - 3 X , r r q 3 < m A A 1 B.r o H 1 k.v.q o @ A 8 9 w 2 ",
"; ; H 8 ; @ n v.n.m.v.H X n.k.k.A A m b.V.q v.v.z   e 9 9 w X # # o 9 - H A   i v.m.u q S.m A n.1 V.A X H v.h m.: n   ; 9 H w * ",
"r H H w 2 @Xn v.V.M.1 H @ r B.1 n.A m b.v.1 3 u z   3 9 9 - n # # n - 9 9 3   i 4 m.q v.N.i A n.1 c.v.X H l.M.v.v.n @ A 8 m H = ",
"3 H 8 ; * P o A A m.v., @ r < v.A A z b.m.q v.r i J f i i 0 O # # o 0 i i e J $ r v.> r A.z A A v.B.m.@ g V.m.m.A n P 3 e 9 H ; ",
"A g H - c ! n > w m.m.0 o q B.q A w p S.n.A 3 q p J e 0 0 0 Q # # o 0 0 0 c   $ k.3 A n.C.i A A v.B.v.O 0 m.n.A 3 n / A w g g 2 ",
"* g g w 3 @ E 3 m.M.k.0 @ r C.q m.w p S.n.n.r k.. J - f 9 - n # # o - 8 9 e Z . k.3 A m.C.m w A k.< v.@ g k.M.m.3 g P 3 9 m H * ",
"; g 0 - ; @Xn v.v.m.v.g @ 3 B.v.A w p S.h ; r : p   e 9 9 9 o # # n f 9 0 e + p V.v.3 n.B.z w m.v.B.m.  0 k.V.r : d Z A 9 g 8 ; ",
"- 0 i 9 * Z.n q m.c.k.m + 1 B.q w m.. C.; ; : : p O e , 3 - o # # o e 3 0 3 + i r r A w z.z A w V.1 1 + , 1 c.h 4 n J 3 9 , , ; ",
"3 0 0 8 * Z O a A : l.m   A 1 1 n.w m B.r w h 6 O Z.> , g f X # # + 0 , i 3 J O 6 3 w r c.m n.A 1 B.n.  z 1 k.; 6 O Z.3 9 g 0 A ",
"r - g - :   O r v.c.1 i O : z.1 ; m.m x.h r ; q i   3 8 - * . # # O > - f 3 + i q w 3 h x.p r w 1 B.v.O i 1 c.4 q O   : - g - * ",
"> f f 2 - / 0 a r 1 A 9   r 6 > 9 3 , z.& 6 = * 0 W f F g H @ # # X g 0 c c ~ 0 * q & & z.H * 9 * % 3   9 3 6 : t 0 J - 3 f f = ",
"( H.#.( @... .U.J.$XP.L.+.+.N +.k P.+.x x *X*X' k ' H.H.=X#.7.# # +Xo.-X) H...k '  .*X;X X+.+.+.k N P.+.] K.$X{ ]  .] @.( #.( F.",
"6.T.T.6.1.0.p.y.r.>.Q.>.>.,.:.:.,.>.2.E.r.K ;.9.p.9.6.6.T.>.y # # B 6.T.6.!.9.-.9.;.4.S O.2.0.,.:.:.,.>.>.Q.>.:.;.p.0.2.6.T.T.6.",
"7.E.0.,.5.e.4.:.K r.r.,.Q.:.2.r.R.K 3.t.;.;.t.:.K K 2.6.w.6.i.# # i.6.$.$.=.3.3.r.a.;.q.q.K 3.R.K Q.R.Q.Q.K r.r.:.4.,.5.,.0.>.7.",
"W W W ~ ~ W g.R R d R P T g.~ R P f.R ~ R T T P ~ ! T j.^ ^ I # # L L / T T P W W T T g.~ R P f.~ ~ R ~ ~ d R Y T R h.~ ~ W W W ",
"X n @ o Q o Q +   X @ @ O Q Q o o n d P n P o Q X o @ X o n o # # Q n @ o @ Q X o T P d J d O X o Q @ o @ o X o Q Q o Q Q   n @ ",
"7 6 = = f F ; 3 q q , % u 3 c - 3 * a i a 7 * * 8 ; > = 2 : 5 # # 5 > 3 q ; ; - * c % % d t > 3 e e A 6 7 H 4 4 * c c - = > 6 % ",
"= ; - g a a 8 c 0 3 O : * f t t d 0 > $ 4 ; - 8 % XXd - 8 2 g # # p * 8 0 d u % 0 9 A r i 3 , , u u 0 3 > n * 8 e 8 a a y - 3 4 ",
"t - 8 D.K.l 5 9 e u i 4 3 s OXb 0 f 4 n * ; - s P.l d g > 2 $ # # p A > , d l P.% ; ; > X q f y l  Xu 3 t i 4 - 8 i l K.7 - 9 t ",
"> 2 ; f V +X@X8 - A n t w E #XD @X- = $ 4 2 2 g ).D P E * 2 p # # p ; ; E J :XV , ; ; & . q 8 Z +X#Xi - 4 n F - 8 Z.+X).0 3 * : ",
"q 2 * - ^ @X8 > > XXg * * * @XW f = * Y & - * f Z L - = F = 8 # # 8 = F > f U U f = - 4 5 * > f W J 3 2 * 0 XX= * - Z L - * - : ",
"* - n W.8.%Xg d 0 E n : 8 f T Y g g - Q F - E g - E g 0 g g X # # T g f g E g f 0 g f 2 o f E 8 n T - 8 : Y E g g g g.8.W.n - = ",
"P @ Q ^ P P @Xo o Q @X@XQ @XQ o @X! W @Xn @XP ! @XZ Q @XQ ! P # # ! Q Q @XQ @X@XP P ! Y / Q ! @XQ Q @XX Z Z Q Q Q ! @XP L @ @ P "
};
